<svg width="1380" height="439" viewBox="0 0 1380 439" fill="none" xmlns="http://www.w3.org/2000/svg">
<path d="M219.625 266.923V331.5H241.375V266.923C284.291 272.275 317.5 308.884 317.5 353.25H143.5C143.5 308.884 176.709 272.275 219.625 266.923ZM230.5 255.375C194.449 255.375 165.25 226.176 165.25 190.125C165.25 154.074 194.449 124.875 230.5 124.875C266.551 124.875 295.75 154.074 295.75 190.125C295.75 226.176 266.551 255.375 230.5 255.375Z" fill="#35A700"/>
<path fill-rule="evenodd" clip-rule="evenodd" d="M158.825 0C128.239 10.0515 100.471 26.3178 77.0175 47.3051C86.8449 72.5324 85.5485 101.83 70.9586 127.101C56.3601 152.386 31.6151 168.161 4.83599 172.253C1.66597 187.506 0 203.308 0 219.501C0 235.692 1.66597 251.497 4.83599 266.748C31.6151 270.841 56.3601 286.616 70.9586 311.901C85.5485 337.171 86.8449 366.471 77.0175 391.696C100.471 412.684 128.239 428.951 158.825 439.002C175.758 417.85 201.797 404.301 231 404.301C260.203 404.301 286.241 417.85 303.176 439.002C333.763 428.951 361.529 412.684 384.982 391.696C375.156 366.471 376.451 337.171 391.041 311.901C405.641 286.616 430.385 270.841 457.163 266.748C460.335 251.497 462 235.692 462 219.501C462 203.308 460.335 187.506 457.163 172.253C430.385 168.161 405.641 152.386 391.041 127.101C376.451 101.83 375.156 72.5324 384.982 47.3051C361.529 26.3178 333.763 10.0515 303.176 0C286.241 21.1534 260.203 34.701 231 34.701C201.797 34.701 175.758 21.1534 158.825 0ZM230.5 350C302.573 350 361 291.573 361 219.5C361 147.427 302.573 89 230.5 89C158.427 89 100 147.427 100 219.5C100 291.573 158.427 350 230.5 350Z" fill="#35A700"/>
<path d="M589.206 201.098C575.962 201.098 564.266 198.862 554.118 194.39C543.97 189.746 535.972 183.21 530.124 174.782C524.276 166.182 521.266 155.776 521.094 143.564H555.924C556.268 151.992 559.278 159.13 564.954 164.978C570.802 170.654 578.8 173.492 588.948 173.492C597.72 173.492 604.686 171.428 609.846 167.3C615.006 163 617.586 157.324 617.586 150.272C617.586 142.876 615.264 137.114 610.62 132.986C606.148 128.858 600.128 125.504 592.56 122.924C584.992 120.344 576.908 117.592 568.308 114.668C554.376 109.852 543.712 103.66 536.316 96.092C529.092 88.524 525.48 78.4619 525.48 65.9059C525.308 55.242 527.802 46.126 532.962 38.5579C538.294 30.8179 545.518 24.8839 554.634 20.7559C563.75 16.4559 574.242 14.3059 586.11 14.3059C598.15 14.3059 608.728 16.4559 617.844 20.7559C627.132 25.0559 634.356 31.0759 639.516 38.8159C644.848 46.5559 647.686 55.7579 648.03 66.4219H612.684C612.512 60.0579 610.018 54.4679 605.202 49.6519C600.558 44.6639 594.022 42.1699 585.594 42.1699C578.37 41.9979 572.264 43.8039 567.276 47.588C562.46 51.1999 560.052 56.5319 560.052 63.5839C560.052 69.6039 561.944 74.4199 565.728 78.0319C569.512 81.4719 574.672 84.3959 581.208 86.8039C587.744 89.2119 595.226 91.7919 603.654 94.5439C612.598 97.6399 620.768 101.252 628.164 105.38C635.56 109.508 641.494 115.012 645.966 121.892C650.438 128.6 652.674 137.286 652.674 147.95C652.674 157.41 650.266 166.182 645.45 174.266C640.634 182.35 633.496 188.886 624.036 193.874C614.576 198.69 602.966 201.098 589.206 201.098ZM683.809 254.762L713.479 189.488H705.739L655.945 70.0339H691.807L727.669 160.076L765.079 70.0339H800.167L718.897 254.762H683.809ZM855.448 201.098C844.096 201.098 834.12 199.292 825.52 195.68C816.92 191.896 810.04 186.736 804.88 180.2C799.72 173.664 796.624 166.096 795.592 157.496H828.874C829.906 162.484 832.658 166.784 837.13 170.396C841.774 173.836 847.708 175.556 854.932 175.556C862.156 175.556 867.402 174.094 870.67 171.17C874.11 168.246 875.83 164.892 875.83 161.108C875.83 155.604 873.422 151.906 868.606 150.014C863.79 147.95 857.082 145.972 848.482 144.08C842.978 142.876 837.388 141.414 831.712 139.694C826.036 137.974 820.79 135.824 815.974 133.244C811.33 130.492 807.546 127.052 804.622 122.924C801.698 118.624 800.236 113.378 800.236 107.186C800.236 95.8339 804.708 86.2879 813.652 78.5479C822.768 70.8079 835.496 66.9379 851.836 66.9379C866.972 66.9379 879.012 70.4639 887.956 77.516C897.072 84.5679 902.49 94.2859 904.21 106.67H872.992C871.1 97.21 863.962 92.48 851.578 92.48C845.386 92.48 840.57 93.684 837.13 96.092C833.862 98.5 832.228 101.51 832.228 105.122C832.228 108.906 834.722 111.916 839.71 114.152C844.698 116.388 851.32 118.452 859.576 120.344C868.52 122.408 876.69 124.73 884.086 127.31C891.654 129.718 897.674 133.416 902.146 138.404C906.618 143.22 908.854 150.186 908.854 159.302C909.026 167.214 906.962 174.352 902.662 180.716C898.362 187.08 892.17 192.068 884.086 195.68C876.002 199.292 866.456 201.098 855.448 201.098ZM978.195 198.002C964.779 198.002 954.029 194.734 945.945 188.198C937.861 181.662 933.819 170.052 933.819 153.368V97.6399H911.889V70.0339H933.819L937.689 35.72H966.843V70.0339H1001.42V97.6399H966.843V153.626C966.843 159.818 968.133 164.118 970.713 166.526C973.465 168.762 978.109 169.88 984.645 169.88H1000.64V198.002H978.195ZM1075.77 201.098C1062.87 201.098 1051.43 198.346 1041.46 192.842C1031.48 187.338 1023.66 179.598 1017.98 169.622C1012.3 159.646 1009.47 148.122 1009.47 135.05C1009.47 121.806 1012.22 110.024 1017.72 99.7039C1023.4 89.3839 1031.14 81.3859 1040.94 75.7099C1050.92 69.8619 1062.61 66.9379 1076.03 66.9379C1088.59 66.9379 1099.68 69.6899 1109.31 75.194C1118.94 80.6979 1126.43 88.2659 1131.76 97.898C1137.26 107.358 1140.01 117.936 1140.01 129.632C1140.01 131.524 1139.93 133.502 1139.76 135.566C1139.76 137.63 1139.67 139.78 1139.5 142.016H1042.23C1042.92 151.992 1046.36 159.818 1052.55 165.494C1058.92 171.17 1066.57 174.008 1075.51 174.008C1082.22 174.008 1087.81 172.546 1092.28 169.622C1096.93 166.526 1100.37 162.57 1102.6 157.754H1136.14C1133.74 165.838 1129.69 173.234 1124.02 179.942C1118.51 186.478 1111.63 191.638 1103.38 195.422C1095.29 199.206 1086.09 201.098 1075.77 201.098ZM1076.03 93.7699C1067.95 93.7699 1060.81 96.092 1054.62 100.736C1048.42 105.208 1044.47 112.088 1042.75 121.376H1106.47C1105.96 112.948 1102.86 106.24 1097.19 101.252C1091.51 96.2639 1084.46 93.7699 1076.03 93.7699ZM1154.89 198.002V70.0339H1184.04L1186.88 87.3199C1191.01 81.1279 1196.43 76.2259 1203.14 72.6139C1210.02 68.8299 1217.93 66.9379 1226.87 66.9379C1246.65 66.9379 1260.67 74.5919 1268.93 89.8999C1273.57 82.8479 1279.76 77.2579 1287.5 73.1299C1295.41 69.0019 1304.01 66.9379 1313.3 66.9379C1329.99 66.9379 1342.8 71.9259 1351.74 81.9019C1360.69 91.8779 1365.16 106.498 1365.16 125.762V198.002H1332.14V128.858C1332.14 117.85 1329.99 109.422 1325.69 103.574C1321.56 97.7259 1315.11 94.802 1306.34 94.802C1297.39 94.802 1290.17 98.07 1284.66 104.606C1279.33 111.142 1276.67 120.258 1276.67 131.954V198.002H1243.64V128.858C1243.64 117.85 1241.49 109.422 1237.19 103.574C1232.89 97.7259 1226.27 94.802 1217.33 94.802C1208.55 94.802 1201.42 98.07 1195.91 104.606C1190.58 111.142 1187.91 120.258 1187.91 131.954V198.002H1154.89ZM515.934 417.002L581.982 236.402H619.134L685.182 417.002H650.094L635.646 375.206H565.212L550.506 417.002H515.934ZM574.242 349.406H626.616L600.3 274.328L574.242 349.406ZM747.549 420.098C735.509 420.098 724.759 417.174 715.299 411.326C705.839 405.478 698.357 397.48 692.853 387.332C687.349 377.184 684.597 365.66 684.597 352.76C684.597 339.86 687.349 328.422 692.853 318.446C698.357 308.298 705.839 300.386 715.299 294.71C724.759 288.862 735.509 285.938 747.549 285.938C757.181 285.938 765.609 287.744 772.833 291.356C780.057 294.968 785.905 300.042 790.377 306.578V231.242H823.401V417.002H793.989L790.377 398.684C786.249 404.36 780.745 409.348 773.865 413.648C767.157 417.948 758.385 420.098 747.549 420.098ZM754.515 391.202C765.179 391.202 773.865 387.676 780.573 380.624C787.453 373.4 790.893 364.198 790.893 353.018C790.893 341.838 787.453 332.722 780.573 325.67C773.865 318.446 765.179 314.834 754.515 314.834C744.023 314.834 735.337 318.36 728.457 325.412C721.577 332.464 718.137 341.58 718.137 352.76C718.137 363.94 721.577 373.142 728.457 380.366C735.337 387.59 744.023 391.202 754.515 391.202ZM844.13 417.002V289.034H873.284L876.122 306.32C880.25 300.128 885.668 295.226 892.376 291.614C899.256 287.83 907.168 285.938 916.112 285.938C935.892 285.938 949.91 293.592 958.166 308.9C962.81 301.848 969.002 296.258 976.742 292.13C984.654 288.002 993.254 285.938 1002.54 285.938C1019.23 285.938 1032.04 290.926 1040.98 300.902C1049.93 310.878 1054.4 325.498 1054.4 344.762V417.002H1021.38V347.858C1021.38 336.85 1019.23 328.422 1014.93 322.574C1010.8 316.726 1004.35 313.802 995.576 313.802C986.632 313.802 979.408 317.07 973.904 323.606C968.572 330.142 965.906 339.258 965.906 350.954V417.002H932.882V347.858C932.882 336.85 930.732 328.422 926.432 322.574C922.132 316.726 915.51 313.802 906.566 313.802C897.794 313.802 890.656 317.07 885.152 323.606C879.82 330.142 877.154 339.258 877.154 350.954V417.002H844.13ZM1090.66 269.168C1084.64 269.168 1079.65 267.362 1075.69 263.75C1071.91 260.138 1070.02 255.58 1070.02 250.076C1070.02 244.572 1071.91 240.1 1075.69 236.66C1079.65 233.048 1084.64 231.242 1090.66 231.242C1096.68 231.242 1101.58 233.048 1105.36 236.66C1109.32 240.1 1111.3 244.572 1111.3 250.076C1111.3 255.58 1109.32 260.138 1105.36 263.75C1101.58 267.362 1096.68 269.168 1090.66 269.168ZM1074.14 417.002V289.034H1107.17V417.002H1074.14ZM1128.74 417.002V289.034H1157.89L1160.47 310.706C1164.43 303.138 1170.1 297.118 1177.5 292.646C1185.07 288.174 1193.92 285.938 1204.07 285.938C1219.9 285.938 1232.19 290.926 1240.97 300.902C1249.74 310.878 1254.12 325.498 1254.12 344.762V417.002H1221.1V347.858C1221.1 336.85 1218.86 328.422 1214.39 322.574C1209.92 316.726 1202.95 313.802 1193.49 313.802C1184.21 313.802 1176.55 317.07 1170.53 323.606C1164.68 330.142 1161.76 339.258 1161.76 350.954V417.002H1128.74Z" fill="black"/>
</svg>
