<svg width="795" height="427" viewBox="0 0 795 427" fill="none" xmlns="http://www.w3.org/2000/svg">
<path d="M17.2837 209V3.37998H54.8197V175.88H142.864V209H17.2837ZM249.244 212.312C234.156 212.312 220.08 209.644 207.016 204.308C193.952 198.972 182.544 191.52 172.792 181.952C163.04 172.384 155.404 161.16 149.884 148.28C144.548 135.216 141.88 121.14 141.88 106.052C141.88 90.78 144.548 76.704 149.884 63.824C155.22 50.944 162.764 39.72 172.516 30.152C182.268 20.584 193.676 13.224 206.74 8.07199C219.804 2.73599 233.972 0.067992 249.244 0.067992C264.516 0.067992 278.684 2.73599 291.749 8.07199C304.813 13.408 316.22 20.86 325.972 30.428C335.724 39.812 343.268 50.944 348.604 63.824C354.125 76.704 356.885 90.78 356.885 106.052C356.885 121.14 354.125 135.216 348.604 148.28C343.085 161.16 335.449 172.384 325.696 181.952C315.945 191.52 304.536 198.972 291.472 204.308C278.592 209.644 264.516 212.312 249.244 212.312ZM249.244 178.088C259.364 178.088 268.656 176.34 277.12 172.844C285.584 169.164 292.944 164.104 299.2 157.664C305.64 151.224 310.516 143.588 313.829 134.756C317.324 125.924 319.072 116.356 319.072 106.052C319.072 95.748 317.324 86.272 313.829 77.624C310.516 68.792 305.64 61.156 299.2 54.716C292.944 48.092 285.584 43.032 277.12 39.536C268.656 36.04 259.364 34.292 249.244 34.292C239.308 34.292 230.108 36.04 221.644 39.536C213.18 43.032 205.728 48.092 199.288 54.716C193.032 61.156 188.156 68.792 184.66 77.624C181.164 86.272 179.416 95.748 179.416 106.052C179.416 116.356 181.164 125.924 184.66 134.756C188.156 143.588 193.032 151.224 199.288 157.664C205.728 164.104 213.18 169.164 221.644 172.844C230.108 176.34 239.308 178.088 249.244 178.088ZM473.889 212.312C459.169 212.312 445.553 209.644 433.041 204.308C420.529 198.972 409.581 191.52 400.197 181.952C390.813 172.384 383.453 161.16 378.117 148.28C372.965 135.4 370.389 121.324 370.389 106.052C370.389 90.78 372.873 76.704 377.841 63.824C382.993 50.76 390.169 39.536 399.369 30.152C408.753 20.584 419.701 13.224 432.213 8.07199C444.725 2.73599 458.341 0.067992 473.061 0.067992C487.781 0.067992 500.937 2.55199 512.529 7.51999C524.305 12.488 534.241 19.112 542.337 27.392C550.433 35.488 556.229 44.412 559.725 54.164L526.329 70.172C522.465 59.5 515.933 50.852 506.733 44.228C497.533 37.604 486.309 34.292 473.061 34.292C460.181 34.292 448.773 37.328 438.837 43.4C429.085 49.472 421.449 57.844 415.929 68.516C410.593 79.188 407.925 91.7 407.925 106.052C407.925 120.404 410.685 133.008 416.205 143.864C421.909 154.536 429.729 162.908 439.665 168.98C449.601 175.052 461.009 178.088 473.889 178.088C484.377 178.088 494.037 176.064 502.869 172.016C511.701 167.784 518.785 161.896 524.121 154.352C529.457 146.624 532.125 137.516 532.125 127.028V111.296L549.237 126.2H473.061V94.46H569.661V115.16C569.661 130.984 566.993 144.968 561.657 157.112C556.321 169.256 549.053 179.468 539.853 187.748C530.837 195.844 520.625 202.008 509.217 206.24C497.809 210.288 486.033 212.312 473.889 212.312ZM686.855 212.312C671.767 212.312 657.691 209.644 644.627 204.308C631.563 198.972 620.155 191.52 610.403 181.952C600.651 172.384 593.015 161.16 587.495 148.28C582.159 135.216 579.491 121.14 579.491 106.052C579.491 90.78 582.159 76.704 587.495 63.824C592.831 50.944 600.375 39.72 610.127 30.152C619.879 20.584 631.287 13.224 644.351 8.07199C657.415 2.73599 671.583 0.067992 686.855 0.067992C702.127 0.067992 716.295 2.73599 729.359 8.07199C742.423 13.408 753.831 20.86 763.583 30.428C773.335 39.812 780.879 50.944 786.215 63.824C791.735 76.704 794.495 90.78 794.495 106.052C794.495 121.14 791.735 135.216 786.215 148.28C780.695 161.16 773.059 172.384 763.307 181.952C753.555 191.52 742.147 198.972 729.083 204.308C716.203 209.644 702.127 212.312 686.855 212.312ZM686.855 178.088C696.975 178.088 706.267 176.34 714.731 172.844C723.195 169.164 730.555 164.104 736.811 157.664C743.251 151.224 748.127 143.588 751.439 134.756C754.935 125.924 756.683 116.356 756.683 106.052C756.683 95.748 754.935 86.272 751.439 77.624C748.127 68.792 743.251 61.156 736.811 54.716C730.555 48.092 723.195 43.032 714.731 39.536C706.267 36.04 696.975 34.292 686.855 34.292C676.919 34.292 667.719 36.04 659.255 39.536C650.791 43.032 643.339 48.092 636.899 54.716C630.643 61.156 625.767 68.792 622.271 77.624C618.775 86.272 617.027 95.748 617.027 106.052C617.027 116.356 618.775 125.924 622.271 134.756C625.767 143.588 630.643 151.224 636.899 157.664C643.339 164.104 650.791 169.164 659.255 172.844C667.719 176.34 676.919 178.088 686.855 178.088ZM0.516012 427L66.308 236.28H111.364L177.156 427H139.268L125.7 386.04H51.972L38.148 427H0.516012ZM61.956 355.32H115.716L83.972 260.344H93.7L61.956 355.32ZM185.582 427V236.28H247.79C268.099 236.28 285.678 240.376 300.526 248.568C315.374 256.589 326.894 267.768 335.086 282.104C343.278 296.269 347.374 312.739 347.374 331.512C347.374 350.115 343.278 366.669 335.086 381.176C326.894 395.512 315.374 406.776 300.526 414.968C285.678 422.989 268.099 427 247.79 427H185.582ZM220.398 396.28H248.558C261.529 396.28 272.707 393.635 282.094 388.344C291.651 382.883 299.075 375.373 304.366 365.816C309.657 356.088 312.302 344.653 312.302 331.512C312.302 318.2 309.657 306.765 304.366 297.208C299.075 287.651 291.651 280.227 282.094 274.936C272.707 269.645 261.529 267 248.558 267H220.398V396.28ZM362.282 427V236.28H395.562L466.986 333.304H451.114L521.002 236.28H554.282V427H519.21V275.96L532.778 279.288L460.33 375.8H456.234L385.578 279.288L397.098 275.96V427H362.282ZM577.982 427V236.28H612.798V427H577.982ZM636.682 427V236.28H663.818L768.778 377.592L754.698 380.408V236.28H789.514V427H762.122L658.698 284.664L671.498 281.848V427H636.682Z" fill="#35A700"/>
</svg>
