<svg width="4172" height="940" viewBox="0 0 4172 940" fill="none" xmlns="http://www.w3.org/2000/svg">
<mask id="path-1-inside-1_3672_30000" fill="white">
<path d="M845 235L672.5 299.5V182L507.5 192.5L438 131L477.5 0L605.5 88L863.5 52L845 235Z"/>
</mask>
<path d="M672.5 299.5H-215.5V1579.58L983.505 1131.26L672.5 299.5ZM845 235L1156 1066.76L1672.98 873.452L1728.5 324.315L845 235ZM863.5 52L1747 141.315L1860.73 -983.752L740.782 -827.48L863.5 52ZM605.5 88L102.422 819.749L386.631 1015.14L728.218 967.48L605.5 88ZM477.5 0L980.578 -731.749L-21.5973 -1420.74L-372.692 -256.355L477.5 0ZM438 131L-412.192 -125.355L-576.372 419.14L-150.469 796.018L438 131ZM507.5 192.5L-80.9688 857.518L195.487 1102.15L563.895 1078.71L507.5 192.5ZM672.5 182H1560.5V-764.305L616.105 -704.207L672.5 182ZM983.505 1131.26L1156 1066.76L533.995 -596.757L361.495 -532.257L983.505 1131.26ZM1728.5 324.315L1747 141.315L-19.9969 -37.3153L-38.4969 145.685L1728.5 324.315ZM740.782 -827.48L482.782 -791.48L728.218 967.48L986.218 931.48L740.782 -827.48ZM1108.58 -643.749L980.578 -731.749L-25.5776 731.749L102.422 819.749L1108.58 -643.749ZM-372.692 -256.355L-412.192 -125.355L1288.19 387.355L1327.69 256.355L-372.692 -256.355ZM-150.469 796.018L-80.9688 857.518L1095.97 -472.518L1026.47 -534.018L-150.469 796.018ZM563.895 1078.71L728.895 1068.21L616.105 -704.207L451.105 -693.707L563.895 1078.71ZM-215.5 182V299.5H1560.5V182H-215.5Z" fill="black" mask="url(#path-1-inside-1_3672_30000)"/>
<mask id="path-3-inside-2_3672_30000" fill="white">
<path d="M416 138.5L434.5 16.5L284 138L153 148L115.5 289L190.5 317L209.5 223L331.5 213.5L416 138.5Z"/>
</mask>
<path d="M434.5 16.5L1312.46 149.634L1655.14 -2110.2L-123.303 -674.441L434.5 16.5ZM416 138.5L1005.47 802.633L1245.79 589.33L1293.96 271.634L416 138.5ZM331.5 213.5L400.439 1098.82L697.856 1075.66L920.967 877.633L331.5 213.5ZM209.5 223L140.561 -662.32L-528.034 -610.257L-660.898 47.0686L209.5 223ZM190.5 317L-120.082 1148.92L854.744 1512.85L1060.9 492.931L190.5 317ZM115.5 289L-742.668 60.7638L-949.697 839.192L-195.082 1120.92L115.5 289ZM153 148L85.4104 -737.424L-543.145 -689.443L-705.168 -80.2362L153 148ZM284 138L351.59 1023.42L626.936 1002.41L841.803 828.941L284 138ZM-443.463 -116.634L-461.963 5.36623L1293.96 271.634L1312.46 149.634L-443.463 -116.634ZM-173.467 -525.633L-257.967 -450.633L920.967 877.633L1005.47 802.633L-173.467 -525.633ZM262.561 -671.82L140.561 -662.32L278.439 1108.32L400.439 1098.82L262.561 -671.82ZM-660.898 47.0686L-679.898 141.069L1060.9 492.931L1079.9 398.931L-660.898 47.0686ZM501.082 -514.915L426.082 -542.915L-195.082 1120.92L-120.082 1148.92L501.082 -514.915ZM973.668 517.236L1011.17 376.236L-705.168 -80.2362L-742.668 60.7638L973.668 517.236ZM220.59 1033.42L351.59 1023.42L216.41 -747.424L85.4104 -737.424L220.59 1033.42ZM841.803 828.941L992.303 707.441L-123.303 -674.441L-273.803 -552.941L841.803 828.941Z" fill="#0070B8" mask="url(#path-3-inside-2_3672_30000)"/>
<mask id="path-5-inside-3_3672_30000" fill="white">
<path d="M172.5 345L101 316.5L0 415L53 517L28 651L130 578.5L148.5 490.5L101 415L172.5 345Z"/>
</mask>
<path d="M101 316.5L429.8 -508.385L-106.033 -721.968L-518.994 -319.229L101 316.5ZM172.5 345L793.72 979.531L1768.48 25.2167L501.3 -479.885L172.5 345ZM101 415L-520.22 -219.531L-1032.07 281.577L-650.621 887.874L101 415ZM148.5 490.5L1017.5 673.188L1091.4 321.666L900.121 17.6259L148.5 490.5ZM130 578.5L644.46 1302.29L927.551 1101.08L999.005 761.188L130 578.5ZM28 651L-844.938 488.139L-1247.76 2647.25L542.46 1374.79L28 651ZM53 517L925.938 679.862L982.055 379.074L840.975 107.562L53 517ZM0 415L-619.994 -220.729L-1091.91 239.506L-787.975 824.438L0 415ZM-227.8 1141.38L-156.3 1169.88L501.3 -479.885L429.8 -508.385L-227.8 1141.38ZM-448.72 -289.531L-520.22 -219.531L722.22 1049.53L793.72 979.531L-448.72 -289.531ZM-650.621 887.874L-603.121 963.374L900.121 17.6259L852.621 -57.8741L-650.621 887.874ZM-720.505 307.812L-739.005 395.812L999.005 761.188L1017.5 673.188L-720.505 307.812ZM-384.46 -145.292L-486.46 -72.792L542.46 1374.79L644.46 1302.29L-384.46 -145.292ZM900.938 813.862L925.938 679.862L-819.938 354.139L-844.938 488.139L900.938 813.862ZM840.975 107.562L787.975 5.56204L-787.975 824.438L-734.975 926.438L840.975 107.562ZM619.994 1050.73L720.994 952.229L-518.994 -319.229L-619.994 -220.729L619.994 1050.73Z" fill="#CD9933" mask="url(#path-5-inside-3_3672_30000)"/>
<mask id="path-7-inside-4_3672_30000" fill="white">
<path d="M115.5 628L33 698.5L159 737L277.5 939.5L474.5 826.5L759.5 905.5L608 716L404 679.5L305.5 737L254.5 651L115.5 628Z"/>
</mask>
<path d="M33 698.5L-543.891 23.4145L-1774.25 1074.81L-226.49 1547.74L33 698.5ZM115.5 628L260.464 -248.088L-147.233 -315.548L-461.391 -47.0855L115.5 628ZM254.5 651L1018.29 198.052L807.391 -157.589L399.464 -225.088L254.5 651ZM305.5 737L-458.295 1189.95L-8.45393 1948.5L753.18 1503.89L305.5 737ZM404 679.5L560.399 -194.619L238.624 -252.191L-43.6795 -87.3944L404 679.5ZM608 716L1301.59 161.494L1093.08 -99.3096L764.399 -158.119L608 716ZM759.5 905.5L522.297 1761.23L3166.52 2494.19L1453.09 350.994L759.5 905.5ZM474.5 826.5L711.703 -29.2328L354.341 -128.291L32.666 56.223L474.5 826.5ZM277.5 939.5L-488.917 1388L-44.2931 2147.8L719.334 1709.78L277.5 939.5ZM159 737L925.417 288.504L750.224 -10.8771L418.49 -112.24L159 737ZM609.891 1373.59L692.391 1303.09L-461.391 -47.0855L-543.891 23.4145L609.891 1373.59ZM-29.4641 1504.09L109.536 1527.09L399.464 -225.088L260.464 -248.088L-29.4641 1504.09ZM-509.295 1103.95L-458.295 1189.95L1069.29 284.052L1018.29 198.052L-509.295 1103.95ZM753.18 1503.89L851.68 1446.39L-43.6795 -87.3944L-142.179 -29.8944L753.18 1503.89ZM247.601 1553.62L451.601 1590.12L764.399 -158.119L560.399 -194.619L247.601 1553.62ZM-85.59 1270.51L65.91 1460.01L1453.09 350.994L1301.59 161.494L-85.59 1270.51ZM996.703 49.7672L711.703 -29.2328L237.297 1682.23L522.297 1761.23L996.703 49.7672ZM32.666 56.223L-164.334 169.223L719.334 1709.78L916.334 1596.78L32.666 56.223ZM1043.92 491.004L925.417 288.504L-607.417 1185.5L-488.917 1388L1043.92 491.004ZM418.49 -112.24L292.49 -150.74L-226.49 1547.74L-100.49 1586.24L418.49 -112.24Z" fill="#ED323D" mask="url(#path-7-inside-4_3672_30000)"/>
<mask id="path-9-inside-5_3672_30000" fill="white">
<path d="M798 869.5L638 695L646 530.5L801.5 425.5L683 324.5L862.5 265L1105 438L814 610L798 869.5Z"/>
</mask>
<path d="M638 695L-248.952 651.866L-266.952 1022L-16.515 1295.13L638 695ZM798 869.5L143.485 1469.63L1555.72 3009.85L1684.32 924.148L798 869.5ZM814 610L362.16 -154.45L-43.33 85.2205L-72.3169 555.352L814 610ZM1105 438L1556.84 1202.45L2731.97 507.873L1620.72 -284.897L1105 438ZM862.5 265L1378.22 -457.897L1011.13 -719.78L583.099 -577.899L862.5 265ZM683 324.5L403.599 -518.399L-1092.89 -22.3475L106.978 1000.33L683 324.5ZM801.5 425.5L1298.43 1161.44L2266.76 507.585L1377.52 -250.328L801.5 425.5ZM646 530.5L149.066 -205.435L-219.358 43.3397L-240.952 487.366L646 530.5ZM-16.515 1295.13L143.485 1469.63L1452.52 269.372L1292.52 94.8716L-16.515 1295.13ZM1684.32 924.148L1700.32 664.648L-72.3169 555.352L-88.3169 814.852L1684.32 924.148ZM1265.84 1374.45L1556.84 1202.45L653.16 -326.45L362.16 -154.45L1265.84 1374.45ZM1620.72 -284.897L1378.22 -457.897L346.784 987.897L589.284 1160.9L1620.72 -284.897ZM583.099 -577.899L403.599 -518.399L962.401 1167.4L1141.9 1107.9L583.099 -577.899ZM106.978 1000.33L225.478 1101.33L1377.52 -250.328L1259.02 -351.328L106.978 1000.33ZM304.566 -310.435L149.066 -205.435L1142.93 1266.44L1298.43 1161.44L304.566 -310.435ZM-240.952 487.366L-248.952 651.866L1524.95 738.134L1532.95 573.634L-240.952 487.366Z" fill="#AEC23C" mask="url(#path-9-inside-5_3672_30000)"/>
<path d="M1238.24 454.75V285.101H1293.21C1314.04 285.101 1327.62 285.949 1333.95 287.646C1343.67 290.192 1351.81 295.747 1358.36 304.311C1364.92 312.797 1368.2 323.791 1368.2 337.292C1368.2 347.707 1366.31 356.463 1362.53 363.561C1358.75 370.658 1353.93 376.251 1348.06 380.34C1342.28 384.352 1336.38 387.014 1330.36 388.325C1322.18 389.945 1310.34 390.755 1294.83 390.755H1272.5V454.75H1238.24ZM1272.5 313.8V361.94H1291.24C1304.74 361.94 1313.77 361.053 1318.32 359.279C1322.87 357.504 1326.42 354.727 1328.97 350.947C1331.59 347.167 1332.9 342.769 1332.9 337.754C1332.9 331.583 1331.09 326.491 1327.46 322.479C1323.84 318.467 1319.25 315.96 1313.69 314.957C1309.6 314.186 1301.39 313.8 1289.04 313.8H1272.5ZM1434.51 454.75V313.8H1384.17V285.101H1518.99V313.8H1468.76V454.75H1434.51ZM1607.17 454.75V285.101H1662.13C1682.96 285.101 1696.54 285.949 1702.87 287.646C1712.59 290.192 1720.73 295.747 1727.29 304.311C1733.84 312.797 1737.12 323.791 1737.12 337.292C1737.12 347.707 1735.23 356.463 1731.45 363.561C1727.67 370.658 1722.85 376.251 1716.99 380.34C1711.2 384.352 1705.3 387.014 1699.28 388.325C1691.1 389.945 1679.26 390.755 1663.75 390.755H1641.42V454.75H1607.17ZM1641.42 313.8V361.94H1660.17C1673.67 361.94 1682.69 361.053 1687.25 359.279C1691.8 357.504 1695.35 354.727 1697.89 350.947C1700.52 347.167 1701.83 342.769 1701.83 337.754C1701.83 331.583 1700.01 326.491 1696.39 322.479C1692.76 318.467 1688.17 315.96 1682.62 314.957C1678.53 314.186 1670.31 313.8 1657.97 313.8H1641.42ZM1765.24 454.75V285.101H1891.03V313.8H1799.5V351.41H1884.67V379.993H1799.5V426.167H1894.27V454.75H1765.24ZM1923.44 454.75V285.101H1995.53C2013.66 285.101 2026.82 286.644 2034.99 289.729C2043.25 292.738 2049.84 298.139 2054.78 305.931C2059.72 313.723 2062.19 322.633 2062.19 332.663C2062.19 345.392 2058.45 355.923 2050.96 364.255C2043.48 372.51 2032.29 377.717 2017.4 379.877C2024.81 384.198 2030.9 388.942 2035.69 394.111C2040.55 399.28 2047.07 408.461 2055.24 421.653L2075.96 454.75H2034.99L2010.23 417.834C2001.43 404.642 1995.42 396.349 1992.18 392.954C1988.94 389.482 1985.5 387.129 1981.88 385.895C1978.25 384.583 1972.5 383.928 1964.63 383.928H1957.69V454.75H1923.44ZM1957.69 356.849H1983.03C1999.47 356.849 2009.73 356.154 2013.82 354.766C2017.9 353.377 2021.11 350.985 2023.42 347.591C2025.74 344.196 2026.89 339.953 2026.89 334.861C2026.89 329.152 2025.35 324.562 2022.26 321.09C2019.25 317.542 2014.97 315.304 2009.42 314.378C2006.64 313.993 1998.31 313.8 1984.42 313.8H1957.69V356.849ZM2132.78 454.75V313.8H2082.44V285.101H2217.26V313.8H2167.03V454.75H2132.78ZM2374.87 454.75H2337.61L2322.8 416.214H2254.98L2240.98 454.75H2204.64L2270.72 285.101H2306.94L2374.87 454.75ZM2311.8 387.631L2288.43 324.678L2265.51 387.631H2311.8ZM2392.69 454.75V285.101H2443.96L2474.74 400.823L2505.17 285.101H2556.56V454.75H2524.73V321.206L2491.06 454.75H2458.08L2424.52 321.206V454.75H2392.69ZM2589.54 454.75V285.101H2623.79V454.75H2589.54ZM2656.89 454.75V285.101H2690.21L2759.65 398.393V285.101H2791.47V454.75H2757.1L2688.71 344.119V454.75H2656.89ZM2980.79 454.75H2943.53L2928.72 416.214H2860.91L2846.9 454.75H2810.57L2876.64 285.101H2912.87L2980.79 454.75ZM2917.73 387.631L2894.35 324.678L2871.44 387.631H2917.73ZM3056.36 454.75V285.101H3128.46C3146.59 285.101 3159.74 286.644 3167.92 289.729C3176.17 292.738 3182.77 298.139 3187.71 305.931C3192.64 313.723 3195.11 322.633 3195.11 332.663C3195.11 345.392 3191.37 355.923 3183.89 364.255C3176.4 372.51 3165.22 377.717 3150.33 379.877C3157.73 384.198 3163.83 388.942 3168.61 394.111C3173.47 399.28 3179.99 408.461 3188.17 421.653L3208.88 454.75H3167.92L3143.15 417.834C3134.36 404.642 3128.34 396.349 3125.1 392.954C3121.86 389.482 3118.43 387.129 3114.8 385.895C3111.18 384.583 3105.43 383.928 3097.56 383.928H3090.62V454.75H3056.36ZM3090.62 356.849H3115.96C3132.39 356.849 3142.65 356.154 3146.74 354.766C3150.83 353.377 3154.03 350.985 3156.35 347.591C3158.66 344.196 3159.82 339.953 3159.82 334.861C3159.82 329.152 3158.27 324.562 3155.19 321.09C3152.18 317.542 3147.9 315.304 3142.34 314.378C3139.57 313.993 3131.23 313.8 3117.35 313.8H3090.62V356.849ZM3220.57 370.967C3220.57 353.686 3223.16 339.182 3228.33 327.455C3232.18 318.814 3237.43 311.061 3244.06 304.195C3250.78 297.329 3258.1 292.237 3266.05 288.919C3276.62 284.445 3288.81 282.208 3302.62 282.208C3327.62 282.208 3347.6 289.961 3362.56 305.468C3377.61 320.975 3385.13 342.538 3385.13 370.157C3385.13 397.544 3377.68 418.992 3362.79 434.499C3347.91 449.928 3328 457.643 3303.08 457.643C3277.85 457.643 3257.8 449.967 3242.91 434.614C3228.02 419.185 3220.57 397.969 3220.57 370.967ZM3255.87 369.81C3255.87 389.02 3260.3 403.601 3269.18 413.553C3278.05 423.428 3289.31 428.365 3302.97 428.365C3316.62 428.365 3327.81 423.466 3336.53 413.668C3345.32 403.793 3349.72 389.02 3349.72 369.347C3349.72 349.905 3345.44 335.401 3336.87 325.835C3328.39 316.269 3317.08 311.485 3302.97 311.485C3288.85 311.485 3277.47 316.346 3268.83 326.066C3260.19 335.71 3255.87 350.291 3255.87 369.81ZM3403.3 399.55L3436.63 396.31C3438.63 407.497 3442.68 415.713 3448.78 420.959C3454.95 426.205 3463.24 428.828 3473.66 428.828C3484.69 428.828 3492.98 426.514 3498.54 421.885C3504.17 417.179 3506.99 411.701 3506.99 405.452C3506.99 401.44 3505.79 398.046 3503.4 395.269C3501.08 392.414 3496.99 389.945 3491.13 387.862C3487.12 386.474 3477.98 384.005 3463.71 380.456C3445.34 375.904 3432.46 370.311 3425.05 363.676C3414.64 354.341 3409.43 342.962 3409.43 329.538C3409.43 320.897 3411.86 312.835 3416.72 305.352C3421.66 297.792 3428.72 292.044 3437.9 288.109C3447.16 284.175 3458.3 282.208 3471.34 282.208C3492.64 282.208 3508.64 286.875 3519.37 296.21C3530.17 305.545 3535.84 318.004 3536.38 333.588L3502.12 335.093C3500.66 326.375 3497.5 320.126 3492.64 316.346C3487.85 312.488 3480.64 310.56 3471 310.56C3461.04 310.56 3453.25 312.604 3447.62 316.693C3443.99 319.316 3442.18 322.826 3442.18 327.224C3442.18 331.235 3443.88 334.668 3447.27 337.523C3451.59 341.149 3462.08 344.929 3478.75 348.864C3495.41 352.798 3507.72 356.887 3515.66 361.13C3523.69 365.296 3529.94 371.044 3534.41 378.373C3538.96 385.625 3541.24 394.613 3541.24 405.336C3541.24 415.057 3538.54 424.161 3533.14 432.647C3527.74 441.133 3520.1 447.459 3510.23 451.625C3500.35 455.714 3488.05 457.759 3473.31 457.759C3451.86 457.759 3435.39 452.821 3423.9 442.946C3412.4 432.994 3405.54 418.529 3403.3 399.55ZM3570.4 454.75V285.101H3603.73L3673.16 398.393V285.101H3704.99V454.75H3670.62L3602.23 344.119V454.75H3570.4ZM3741.32 454.75V285.101H3867.11V313.8H3775.58V351.41H3860.75V379.993H3775.58V426.167H3870.35V454.75H3741.32ZM3899.63 454.75V285.101H4015.93V313.8H3933.89V353.956H4004.71V382.655H3933.89V454.75H3899.63ZM4082.47 454.75V313.8H4032.13V285.101H4166.95V313.8H4116.73V454.75H4082.47Z" fill="black"/>
<path d="M1233.37 664.75V543.061H1272.8C1287.74 543.061 1297.48 543.669 1302.02 544.887C1308.99 546.713 1314.83 550.697 1319.53 556.84C1324.23 562.927 1326.59 570.813 1326.59 580.497C1326.59 587.968 1325.23 594.249 1322.52 599.34C1319.81 604.431 1316.35 608.443 1312.14 611.376C1307.99 614.254 1303.76 616.163 1299.44 617.104C1293.58 618.266 1285.08 618.847 1273.96 618.847H1257.94V664.75H1233.37ZM1257.94 563.646V598.178H1271.39C1281.07 598.178 1287.54 597.541 1290.81 596.269C1294.07 594.996 1296.62 593.004 1298.45 590.292C1300.33 587.58 1301.27 584.426 1301.27 580.829C1301.27 576.402 1299.97 572.75 1297.37 569.872C1294.77 566.994 1291.47 565.196 1287.49 564.477C1284.56 563.923 1278.66 563.646 1269.81 563.646H1257.94ZM1367.16 664.75V543.061H1457.39V563.646H1391.73V590.624H1452.82V611.127H1391.73V644.247H1459.71V664.75H1367.16ZM1501.19 664.75V543.061H1525.1L1574.91 624.325V543.061H1597.73V664.75H1573.08L1524.02 585.395V664.75H1501.19ZM1700.81 620.009V599.506H1753.77V647.982C1748.62 652.963 1741.15 657.362 1731.36 661.181C1721.62 664.944 1711.74 666.825 1701.72 666.825C1688.99 666.825 1677.9 664.169 1668.44 658.856C1658.97 653.489 1651.86 645.852 1647.1 635.946C1642.34 625.985 1639.96 615.167 1639.96 603.49C1639.96 590.818 1642.62 579.556 1647.93 569.706C1653.24 559.856 1661.02 552.302 1671.26 547.045C1679.06 543.005 1688.77 540.985 1700.39 540.985C1715.5 540.985 1727.29 544.167 1735.75 550.531C1744.28 556.84 1749.76 565.583 1752.19 576.762L1727.79 581.327C1726.07 575.351 1722.83 570.647 1718.07 567.216C1713.37 563.729 1707.48 561.986 1700.39 561.986C1689.66 561.986 1681.11 565.39 1674.74 572.196C1668.44 579.003 1665.28 589.102 1665.28 602.494C1665.28 616.938 1668.49 627.784 1674.91 635.033C1681.33 642.227 1689.74 645.824 1700.14 645.824C1705.29 645.824 1710.44 644.828 1715.58 642.836C1720.79 640.788 1725.24 638.326 1728.95 635.448V620.009H1700.81ZM1791.93 604.652C1791.93 592.257 1793.78 581.853 1797.49 573.441C1800.26 567.243 1804.02 561.682 1808.78 556.757C1813.6 551.832 1818.85 548.179 1824.55 545.8C1832.13 542.59 1840.88 540.985 1850.78 540.985C1868.71 540.985 1883.05 546.547 1893.78 557.67C1904.57 568.793 1909.97 584.26 1909.97 604.071C1909.97 623.716 1904.63 639.101 1893.95 650.224C1883.27 661.291 1868.99 666.825 1851.12 666.825C1833.02 666.825 1818.63 661.319 1807.95 650.307C1797.27 639.239 1791.93 624.021 1791.93 604.652ZM1817.25 603.822C1817.25 617.602 1820.43 628.061 1826.79 635.199C1833.16 642.283 1841.24 645.824 1851.03 645.824C1860.83 645.824 1868.85 642.31 1875.1 635.282C1881.41 628.199 1884.57 617.602 1884.57 603.49C1884.57 589.545 1881.5 579.141 1875.35 572.279C1869.27 565.417 1861.16 561.986 1851.03 561.986C1840.91 561.986 1832.74 565.473 1826.55 572.445C1820.35 579.363 1817.25 589.822 1817.25 603.822ZM1950.29 664.75V544.057H1974.86V644.247H2035.95V664.75H1950.29ZM2183.69 664.75H2156.96L2146.33 637.108H2097.69L2087.65 664.75H2061.58L2108.98 543.061H2134.96L2183.69 664.75ZM2138.45 616.605L2121.68 571.449L2105.25 616.605H2138.45ZM2217.29 664.75V543.061H2241.86V590.956H2290V543.061H2314.57V664.75H2290V611.542H2241.86V664.75H2217.29ZM2470.19 664.75H2443.46L2432.84 637.108H2384.2L2374.15 664.75H2348.09L2395.48 543.061H2421.47L2470.19 664.75ZM2424.95 616.605L2408.18 571.449L2391.75 616.605H2424.95ZM2503.96 664.75V543.061H2527.86L2577.67 624.325V543.061H2600.49V664.75H2575.84L2526.78 585.395V664.75H2503.96ZM2822.33 649.892L2808.22 667.904C2801.3 664.529 2794.66 659.88 2788.3 653.959C2783.38 658.386 2778.15 661.651 2772.61 663.754C2767.08 665.857 2760.49 666.908 2752.86 666.908C2737.69 666.908 2726.29 662.647 2718.66 654.125C2712.74 647.54 2709.78 639.958 2709.78 631.381C2709.78 623.578 2712.1 616.578 2716.75 610.38C2721.4 604.127 2728.34 598.703 2737.58 594.11C2733.43 589.185 2730.31 584.509 2728.2 580.082C2726.1 575.6 2725.05 571.366 2725.05 567.382C2725.05 560.022 2727.98 553.796 2733.85 548.705C2739.77 543.559 2748.18 540.985 2759.08 540.985C2769.6 540.985 2777.81 543.669 2783.73 549.037C2789.66 554.405 2792.62 560.963 2792.62 568.71C2792.62 573.635 2791.15 578.311 2788.22 582.738C2785.28 587.165 2779.36 592.174 2770.45 597.763L2787.39 620.092C2789.38 616.55 2791.1 611.929 2792.53 606.229L2813.62 611.044C2811.51 618.515 2809.69 623.993 2808.14 627.479C2806.59 630.91 2804.93 633.788 2803.16 636.112C2805.76 638.547 2809.11 641.231 2813.2 644.164C2817.35 647.042 2820.4 648.951 2822.33 649.892ZM2758.83 583.734L2765.14 578.92C2769.79 575.323 2772.11 571.754 2772.11 568.212C2772.11 565.224 2770.98 562.678 2768.71 560.575C2766.5 558.472 2763.48 557.421 2759.66 557.421C2755.96 557.421 2753.05 558.362 2750.95 560.243C2748.84 562.069 2747.79 564.2 2747.79 566.635C2747.79 569.512 2749.56 572.999 2753.11 577.094L2758.83 583.734ZM2749.7 609.052C2744.33 611.763 2740.32 615.028 2737.67 618.847C2735.01 622.665 2733.68 626.566 2733.68 630.551C2733.68 635.587 2735.31 639.709 2738.58 642.919C2741.9 646.073 2746.33 647.65 2751.86 647.65C2755.51 647.65 2759.03 646.931 2762.4 645.492C2765.78 644.053 2769.46 641.674 2773.44 638.354L2749.7 609.052ZM2925.64 664.75V543.061H2965.07C2980.01 543.061 2989.75 543.669 2994.29 544.887C3001.26 546.713 3007.1 550.697 3011.8 556.84C3016.5 562.927 3018.86 570.813 3018.86 580.497C3018.86 587.968 3017.5 594.249 3014.79 599.34C3012.08 604.431 3008.62 608.443 3004.41 611.376C3000.26 614.254 2996.03 616.163 2991.71 617.104C2985.85 618.266 2977.35 618.847 2966.23 618.847H2950.21V664.75H2925.64ZM2950.21 563.646V598.178H2963.66C2973.34 598.178 2979.81 597.541 2983.08 596.269C2986.34 594.996 2988.89 593.004 2990.72 590.292C2992.6 587.58 2993.54 584.426 2993.54 580.829C2993.54 576.402 2992.24 572.75 2989.64 569.872C2987.04 566.994 2983.74 565.196 2979.76 564.477C2976.83 563.923 2970.93 563.646 2962.08 563.646H2950.21ZM3059.43 664.75V543.061H3149.66V563.646H3084V590.624H3145.09V611.127H3084V644.247H3151.98V664.75H3059.43ZM3220.61 664.75V563.646H3184.5V543.061H3281.2V563.646H3245.18V664.75H3220.61ZM3317.62 664.75V543.061H3369.34C3382.34 543.061 3391.78 544.167 3397.64 546.381C3403.57 548.539 3408.3 552.413 3411.84 558.002C3415.38 563.591 3417.15 569.983 3417.15 577.177C3417.15 586.308 3414.47 593.861 3409.1 599.838C3403.73 605.759 3395.71 609.494 3385.03 611.044C3390.34 614.143 3394.71 617.546 3398.14 621.254C3401.63 624.962 3406.3 631.547 3412.17 641.01L3427.03 664.75H3397.64L3379.88 638.271C3373.57 628.808 3369.26 622.859 3366.93 620.424C3364.61 617.934 3362.14 616.246 3359.54 615.36C3356.94 614.42 3352.82 613.949 3347.18 613.949H3342.19V664.75H3317.62ZM3342.19 594.525H3360.37C3372.16 594.525 3379.52 594.027 3382.45 593.031C3385.39 592.035 3387.68 590.32 3389.34 587.885C3391 585.45 3391.83 582.406 3391.83 578.754C3391.83 574.659 3390.73 571.366 3388.51 568.876C3386.35 566.33 3383.28 564.726 3379.3 564.062C3377.31 563.785 3371.33 563.646 3361.37 563.646H3342.19V594.525ZM3455.81 604.652C3455.81 592.257 3457.67 581.853 3461.37 573.441C3464.14 567.243 3467.9 561.682 3472.66 556.757C3477.48 551.832 3482.73 548.179 3488.43 545.8C3496.02 542.59 3504.76 540.985 3514.67 540.985C3532.59 540.985 3546.93 546.547 3557.66 557.67C3568.45 568.793 3573.85 584.26 3573.85 604.071C3573.85 623.716 3568.51 639.101 3557.83 650.224C3547.15 661.291 3532.87 666.825 3515 666.825C3496.9 666.825 3482.51 661.319 3471.83 650.307C3461.15 639.239 3455.81 624.021 3455.81 604.652ZM3481.13 603.822C3481.13 617.602 3484.31 628.061 3490.68 635.199C3497.04 642.283 3505.12 645.824 3514.91 645.824C3524.71 645.824 3532.73 642.31 3538.99 635.282C3545.3 628.199 3548.45 617.602 3548.45 603.49C3548.45 589.545 3545.38 579.141 3539.24 572.279C3533.15 565.417 3525.04 561.986 3514.91 561.986C3504.79 561.986 3496.62 565.473 3490.43 572.445C3484.23 579.363 3481.13 589.822 3481.13 603.822ZM3613.84 664.75V543.061H3638.41V597.099L3688.05 543.061H3721.09L3675.27 590.458L3723.58 664.75H3691.78L3658.33 607.641L3638.41 627.978V664.75H3613.84ZM3756.01 664.75V543.061H3780.58V664.75H3756.01ZM3824.14 664.75V543.061H3860.91L3882.99 626.068L3904.83 543.061H3941.68V664.75H3918.85V568.959L3894.7 664.75H3871.04L3846.97 568.959V664.75H3824.14ZM3985.74 664.75V543.061H4010.31V664.75H3985.74ZM4163.94 664.75H4137.21L4126.58 637.108H4077.94L4067.9 664.75H4041.83L4089.23 543.061H4115.21L4163.94 664.75ZM4118.7 616.605L4101.93 571.449L4085.49 616.605H4118.7Z" fill="black"/>
</svg>
