<svg width="488" height="248" viewBox="0 0 488 248" fill="none" xmlns="http://www.w3.org/2000/svg">
<circle cx="82.8402" cy="22.8402" r="22.8402" fill="url(#paint0_linear_5_77)"/>
<circle cx="16.9838" cy="15.2268" r="7.61341" fill="url(#paint1_linear_5_77)"/>
<path d="M8.7688 26.3541L83.8266 53.9688C96.9897 58.8116 103.735 73.4083 98.8917 86.5714V86.5714L23.8339 58.9567C10.6708 54.1139 3.92595 39.5172 8.7688 26.3541V26.3541Z" fill="url(#paint2_linear_5_77)"/>
<path d="M70.2617 80.2337L90.509 87.6829C103.672 92.5257 110.417 107.122 105.574 120.286V120.286L85.3268 112.836C72.1637 107.993 65.4189 93.3967 70.2617 80.2337V80.2337Z" fill="url(#paint3_linear_5_77)"/>
<path d="M74.9629 111.859V111.859C94.033 121.753 106.002 141.448 106.002 162.933V247.143V247.143C89.5247 240.942 78.4199 225.408 77.8841 207.81L74.9629 111.859Z" fill="url(#paint4_linear_5_77)"/>
<path d="M77.8751 113.616L124.166 130.647C137.329 135.489 144.074 150.086 139.231 163.249V163.249L92.9402 146.218C79.7772 141.375 73.0323 126.779 77.8751 113.616V113.616Z" fill="url(#paint5_linear_5_77)" fill-opacity="0.6"/>
<path d="M173.121 159V50.25H178.615L230.271 101.793L281.871 50.25H293.992V159H269.75V92.5039L227.326 134.928L185.242 92.5039V159H173.121ZM366.492 110.629V98.6211C366.492 95.2982 365.284 92.4473 362.867 90.0684C360.488 87.6895 357.656 86.5 354.371 86.5H342.25C335.113 86.5 331.111 90.5404 330.242 98.6211H318.121C319.971 82.4596 328.014 74.3789 342.25 74.3789H366.492C373.1 74.3789 378.764 76.7767 383.484 81.5723C388.242 86.3301 390.621 92.013 390.621 98.6211V159H366.492V146.879C365.548 154.96 361.508 159 354.371 159H342.25C335.642 159 329.959 156.64 325.201 151.92C320.481 147.162 318.121 141.479 318.121 134.871V134.758C318.121 128.15 320.5 122.486 325.258 117.766C330.016 113.008 335.68 110.629 342.25 110.629H366.492ZM366.492 122.75H354.371C351.048 122.75 348.197 123.939 345.818 126.318C343.439 128.66 342.25 131.473 342.25 134.758V134.871C342.25 138.118 343.421 140.932 345.762 143.311C348.141 145.689 351.01 146.879 354.371 146.879C357.732 146.879 360.583 145.689 362.924 143.311C365.303 140.932 366.492 138.118 366.492 134.871V122.75ZM475.072 74.3789H463.064C462.007 66.2982 458.193 62.2578 451.623 62.2578C447.394 62.2578 444.203 63.2773 442.051 65.3164C439.898 67.3555 438.822 70.3952 438.822 74.4355C438.822 77.4564 440.012 80.2884 442.391 82.9316L467.992 111.705C472.712 116.992 475.072 122.674 475.072 128.754V134.871C475.072 141.404 472.712 147.068 467.992 151.863C463.272 156.621 457.589 159 450.943 159H438.822C430.817 159 424.794 156.98 420.754 152.939C416.714 148.899 414.693 142.876 414.693 134.871H426.814C426.739 135.702 426.701 136.363 426.701 136.854C426.701 140.139 427.966 142.631 430.496 144.33C433.026 146.029 435.801 146.879 438.822 146.879C443.127 146.879 446.223 145.84 448.111 143.764C449.999 141.687 450.943 138.666 450.943 134.701C450.943 131.643 449.754 128.811 447.375 126.205L421.773 97.5449C417.053 92.2962 414.693 86.6133 414.693 80.4961V74.3789C414.693 67.8086 417.053 62.1445 421.773 57.3867C426.493 52.6289 432.176 50.25 438.822 50.25H450.943C466.048 50.25 474.09 58.293 475.072 74.3789Z" fill="url(#paint6_linear_5_77)"/>
<path d="M161.46 117.905H121.585L118.975 114.135L116.8 111.67V110.655H156.675L159.285 114.425L161.46 116.89V117.905Z" fill="#777777"/>
<defs>
<linearGradient id="paint0_linear_5_77" x1="76.6909" y1="-17.2766" x2="82.8402" y2="47.4374" gradientUnits="userSpaceOnUse">
<stop stop-color="#FFA24C"/>
<stop offset="0.492874" stop-color="#FFC122"/>
<stop offset="1" stop-color="#FF3232"/>
</linearGradient>
<linearGradient id="paint1_linear_5_77" x1="14.934" y1="1.85455" x2="16.9838" y2="23.4259" gradientUnits="userSpaceOnUse">
<stop stop-color="#FFA24C"/>
<stop offset="0.492874" stop-color="#FFC122"/>
<stop offset="1" stop-color="#FF3232"/>
</linearGradient>
<linearGradient id="paint2_linear_5_77" x1="47.7303" y1="14.3484" x2="96.6318" y2="121.522" gradientUnits="userSpaceOnUse">
<stop stop-color="#FFBF27"/>
<stop offset="0.305203" stop-color="#FF9128"/>
<stop offset="1" stop-color="#FF4331"/>
</linearGradient>
<linearGradient id="paint3_linear_5_77" x1="98.3574" y1="116.411" x2="18.2716" y2="16.6672" gradientUnits="userSpaceOnUse">
<stop stop-color="#FF2A2A"/>
<stop offset="0.447722" stop-color="#FFB024"/>
<stop offset="1" stop-color="#737373"/>
</linearGradient>
<linearGradient id="paint4_linear_5_77" x1="181.843" y1="-26.9397" x2="239.512" y2="15.5358" gradientUnits="userSpaceOnUse">
<stop stop-color="#FF2A2A"/>
<stop offset="1" stop-color="#383535"/>
</linearGradient>
<linearGradient id="paint5_linear_5_77" x1="127.517" y1="157.72" x2="97.1347" y2="120.171" gradientUnits="userSpaceOnUse">
<stop stop-color="#FF2A2A"/>
<stop offset="1" stop-color="#737373"/>
</linearGradient>
<linearGradient id="paint6_linear_5_77" x1="521.5" y1="-12.5" x2="140" y2="197" gradientUnits="userSpaceOnUse">
<stop/>
<stop offset="1" stop-color="#666666"/>
</linearGradient>
</defs>
</svg>
