<svg width="44" height="44" viewBox="0 0 44 44" fill="none" xmlns="http://www.w3.org/2000/svg">
<rect width="44" height="44" rx="22" fill="#45BA82"/>
<path d="M19.613 10.5791C21.1689 10.2534 22.7941 10.2431 24.3857 10.5758C24.5922 11.9287 25.3889 13.1788 26.6663 13.9162C27.9436 14.6537 29.4247 14.7187 30.6994 14.221C31.7834 15.4331 32.5871 16.8457 33.083 18.356C32.0161 19.2112 31.333 20.5253 31.333 21.9991C31.333 23.4737 32.0169 24.7886 33.0848 25.6437C32.8383 26.3909 32.5121 27.1243 32.1032 27.8324C31.6943 28.5407 31.2224 29.1898 30.6985 29.7769C29.424 29.2795 27.9433 29.3448 26.6663 30.082C25.39 30.8188 24.5935 32.0676 24.3862 33.4192C22.8304 33.7448 21.2051 33.7551 19.6135 33.4224C19.4071 32.0696 18.6103 30.8194 17.3329 30.082C16.0556 29.3445 14.5746 29.2795 13.2998 29.7772C12.2158 28.5652 11.4121 27.1525 10.9162 25.6422C11.9831 24.7871 12.6663 23.4728 12.6663 21.9991C12.6663 20.5245 11.9823 19.2097 10.9144 18.3545C11.1609 17.6073 11.4871 16.874 11.896 16.1658C12.3049 15.4575 12.7768 14.8084 13.3006 14.2213C14.5752 14.7186 16.0559 14.6535 17.3329 13.9162C18.6092 13.1793 19.4058 11.9306 19.613 10.5791ZM21.9996 25.4991C23.9326 25.4991 25.4996 23.9321 25.4996 21.9991C25.4996 20.0661 23.9326 18.4991 21.9996 18.4991C20.0666 18.4991 18.4996 20.0661 18.4996 21.9991C18.4996 23.9321 20.0666 25.4991 21.9996 25.4991Z" fill="white"/>
</svg>
