<svg width="242" height="64" viewBox="0 0 242 64" fill="none" xmlns="http://www.w3.org/2000/svg">
<path d="M84.332 59.0765V7.3842H92.1597V59.0765H84.332ZM100.434 59.0765V7.3842H109.665L127.166 41.7965L144.594 7.3842H153.825V59.0765H145.997V20.898L130.194 51.6919H124.139L108.262 20.9719V59.0765H100.434ZM174.224 59.9627C171.122 59.9627 168.562 59.4458 166.544 58.4119C164.525 57.3781 163.024 56.0242 162.039 54.3504C161.054 52.6273 160.562 50.7565 160.562 48.7381C160.562 45.1934 161.941 42.3873 164.698 40.3196C167.454 38.2519 171.393 37.2181 176.513 37.2181H186.113V36.5534C186.113 33.6981 185.325 31.5565 183.75 30.1288C182.224 28.7011 180.23 27.9873 177.768 27.9873C175.602 27.9873 173.707 28.5288 172.082 29.6119C170.507 30.6457 169.547 32.1965 169.202 34.2642H161.374C161.621 31.6057 162.507 29.3411 164.033 27.4704C165.608 25.5504 167.578 24.0981 169.941 23.1134C172.353 22.0796 174.987 21.5627 177.842 21.5627C182.962 21.5627 186.925 22.9165 189.731 25.6242C192.538 28.2827 193.941 31.9257 193.941 36.5534V59.0765H187.147L186.482 52.7996C185.448 54.8181 183.947 56.5165 181.978 57.895C180.008 59.2734 177.424 59.9627 174.224 59.9627ZM175.774 53.6119C177.891 53.6119 179.664 53.1196 181.091 52.135C182.568 51.1011 183.701 49.7473 184.488 48.0734C185.325 46.3996 185.842 44.5534 186.039 42.535H177.325C174.224 42.535 172.008 43.0765 170.679 44.1596C169.399 45.2427 168.759 46.5965 168.759 48.2211C168.759 49.895 169.374 51.2242 170.605 52.2088C171.885 53.1442 173.608 53.6119 175.774 53.6119ZM218.206 59.9627C214.416 59.9627 211.093 59.2981 208.237 57.9688C205.382 56.6396 203.142 54.7442 201.517 52.2827C199.942 49.8211 199.13 46.8919 199.08 43.495H207.351C207.4 46.2519 208.36 48.5904 210.231 50.5104C212.102 52.4304 214.736 53.3904 218.133 53.3904C221.136 53.3904 223.474 52.6765 225.148 51.2488C226.871 49.7719 227.733 47.9011 227.733 45.6365C227.733 43.815 227.314 42.3381 226.477 41.2057C225.69 40.0734 224.582 39.1381 223.154 38.3996C221.776 37.6611 220.176 36.9965 218.354 36.4057C216.533 35.815 214.613 35.175 212.594 34.4857C208.606 33.1565 205.603 31.4334 203.585 29.3165C201.616 27.1996 200.631 24.4181 200.631 20.9719C200.582 18.0673 201.246 15.5319 202.625 13.3657C204.053 11.1996 206.022 9.52574 208.533 8.3442C211.093 7.11343 214.071 6.49805 217.468 6.49805C220.816 6.49805 223.745 7.11343 226.256 8.3442C228.816 9.57497 230.81 11.298 232.237 13.5134C233.665 15.6796 234.403 18.215 234.453 21.1196H226.182C226.182 19.7904 225.837 18.535 225.148 17.3534C224.459 16.1227 223.45 15.1134 222.12 14.3257C220.791 13.538 219.166 13.1442 217.246 13.1442C214.785 13.095 212.742 13.7104 211.117 14.9904C209.542 16.2704 208.754 18.0427 208.754 20.3073C208.754 22.3257 209.345 23.8765 210.526 24.9596C211.708 26.0427 213.333 26.9534 215.4 27.6919C217.468 28.3811 219.831 29.1934 222.49 30.1288C225.05 30.9657 227.339 31.975 229.357 33.1565C231.376 34.3381 232.976 35.8888 234.157 37.8088C235.388 39.7288 236.003 42.1657 236.003 45.1196C236.003 47.7288 235.339 50.1658 234.01 52.4304C232.68 54.6458 230.686 56.4673 228.028 57.895C225.37 59.2734 222.096 59.9627 218.206 59.9627Z" fill="#082313"/>
<path fill-rule="evenodd" clip-rule="evenodd" d="M35.9385 46.6391C35.0321 46.6391 34.2974 47.3738 34.2974 48.2801V51.2166C34.2974 52.1229 35.0321 52.8576 35.9385 52.8576H45.1282C46.0346 52.8576 46.7692 53.5923 46.7692 54.4986V57.4352C46.7692 58.3416 46.0346 59.0763 45.1282 59.0763H17.2308C16.3245 59.0763 15.5897 58.3416 15.5897 57.4352V54.4986C15.5897 53.5923 16.3245 52.8576 17.2308 52.8576H26.4205C27.3269 52.8576 28.0615 52.1229 28.0615 51.2166V48.2801C28.0615 47.3738 27.3269 46.6391 26.4205 46.6391H3.09238C1.38453 46.6391 0 45.2432 0 43.5064V42.666H4.92308H57.4359H62.359V43.5064C62.359 45.2364 60.9393 46.6391 59.2666 46.6391H35.9385Z" fill="#35A700"/>
<path d="M29.7296 24.3102V28.0501C23.5329 28.0501 18.5096 33.0736 18.5096 39.2701H14.7695C14.7695 31.0078 21.4674 24.3102 29.7296 24.3102ZM29.7296 22.44C23.5305 22.44 18.5096 17.4192 18.5096 11.22C18.5096 5.02097 23.5305 0 29.7296 0C35.9286 0 40.9496 5.02097 40.9496 11.22C40.9496 17.4192 35.9286 22.44 29.7296 22.44ZM29.7296 18.7C33.8624 18.7 37.2096 15.3528 37.2096 11.22C37.2096 7.08733 33.8624 3.74001 29.7296 3.74001C25.5969 3.74001 22.2495 7.08733 22.2495 11.22C22.2495 15.3528 25.5969 18.7 29.7296 18.7ZM34.5815 33.3076C34.4658 32.8207 34.4046 32.3126 34.4046 31.7901C34.4046 31.2678 34.4658 30.7597 34.5813 30.2728L32.727 29.2022L34.5971 25.9632L36.4526 27.0344C37.1878 26.3393 38.0841 25.8125 39.0797 25.516V23.3751H42.8196V25.516C43.8152 25.8125 44.7114 26.3393 45.4464 27.0344L47.3022 25.963L49.1725 29.2021L47.318 30.2727C47.4335 30.7597 47.4947 31.2678 47.4947 31.7901C47.4947 32.3125 47.4335 32.8205 47.318 33.3074L49.1725 34.378L47.3024 37.6171L45.4466 36.5455C44.7115 37.241 43.8154 37.7677 42.8198 38.0639V40.2051H39.0799V38.0641C38.0842 37.7679 37.1879 37.2411 36.4527 36.5457L34.5972 37.6172L32.727 34.3782L34.5815 33.3076ZM40.9496 34.5951C42.4988 34.5951 43.7547 33.3393 43.7547 31.7901C43.7547 30.241 42.4988 28.9851 40.9496 28.9851C39.4005 28.9851 38.1446 30.241 38.1446 31.7901C38.1446 33.3393 39.4005 34.5951 40.9496 34.5951Z" fill="#35A700"/>
</svg>
