<svg width="63" height="60" viewBox="0 0 63 60" fill="none" xmlns="http://www.w3.org/2000/svg">
<path fill-rule="evenodd" clip-rule="evenodd" d="M35.9385 46.6391C35.0321 46.6391 34.2974 47.3738 34.2974 48.2801V51.2166C34.2974 52.1229 35.0321 52.8576 35.9385 52.8576H45.1282C46.0346 52.8576 46.7692 53.5923 46.7692 54.4986V57.4352C46.7692 58.3416 46.0346 59.0763 45.1282 59.0763H17.2308C16.3245 59.0763 15.5897 58.3416 15.5897 57.4352V54.4986C15.5897 53.5923 16.3245 52.8576 17.2308 52.8576H26.4205C27.3269 52.8576 28.0615 52.1229 28.0615 51.2166V48.2801C28.0615 47.3738 27.3269 46.6391 26.4205 46.6391H3.09238C1.38453 46.6391 0 45.2432 0 43.5064V42.666H4.92308H57.4359H62.359V43.5064C62.359 45.2364 60.9393 46.6391 59.2666 46.6391H35.9385Z" fill="#35A700"/>
<path d="M29.7296 24.3102V28.0501C23.5329 28.0501 18.5096 33.0736 18.5096 39.2701H14.7695C14.7695 31.0078 21.4674 24.3102 29.7296 24.3102ZM29.7296 22.44C23.5305 22.44 18.5096 17.4192 18.5096 11.22C18.5096 5.02097 23.5305 0 29.7296 0C35.9286 0 40.9496 5.02097 40.9496 11.22C40.9496 17.4192 35.9286 22.44 29.7296 22.44ZM29.7296 18.7C33.8624 18.7 37.2096 15.3528 37.2096 11.22C37.2096 7.08733 33.8624 3.74001 29.7296 3.74001C25.5969 3.74001 22.2495 7.08733 22.2495 11.22C22.2495 15.3528 25.5969 18.7 29.7296 18.7ZM34.5815 33.3076C34.4658 32.8207 34.4046 32.3126 34.4046 31.7901C34.4046 31.2678 34.4658 30.7597 34.5813 30.2728L32.727 29.2022L34.5971 25.9632L36.4526 27.0344C37.1878 26.3393 38.0841 25.8125 39.0797 25.516V23.3751H42.8196V25.516C43.8152 25.8125 44.7114 26.3393 45.4464 27.0344L47.3022 25.963L49.1725 29.2021L47.318 30.2727C47.4335 30.7597 47.4947 31.2678 47.4947 31.7901C47.4947 32.3125 47.4335 32.8205 47.318 33.3074L49.1725 34.378L47.3024 37.6171L45.4466 36.5455C44.7115 37.241 43.8154 37.7677 42.8198 38.0639V40.2051H39.0799V38.0641C38.0842 37.7679 37.1879 37.2411 36.4527 36.5457L34.5972 37.6172L32.727 34.3782L34.5815 33.3076ZM40.9496 34.5951C42.4988 34.5951 43.7547 33.3393 43.7547 31.7901C43.7547 30.241 42.4988 28.9851 40.9496 28.9851C39.4005 28.9851 38.1446 30.241 38.1446 31.7901C38.1446 33.3393 39.4005 34.5951 40.9496 34.5951Z" fill="#35A700"/>
</svg>
