<svg width="488" height="248" viewBox="0 0 488 248" fill="none" xmlns="http://www.w3.org/2000/svg">
<circle cx="82.8402" cy="22.8402" r="22.8402" fill="url(#paint0_linear_5_75)"/>
<circle cx="16.9838" cy="15.2268" r="7.61341" fill="url(#paint1_linear_5_75)"/>
<path d="M8.76877 26.3541L83.8266 53.9688C96.9896 58.8116 103.734 73.4083 98.8916 86.5714V86.5714L23.8338 58.9567C10.6708 54.1139 3.92592 39.5172 8.76877 26.3541V26.3541Z" fill="url(#paint2_linear_5_75)"/>
<path d="M70.2617 80.2337L90.509 87.6829C103.672 92.5257 110.417 107.122 105.574 120.286V120.286L85.3268 112.836C72.1637 107.993 65.4189 93.3967 70.2617 80.2337V80.2337Z" fill="url(#paint3_linear_5_75)"/>
<path d="M74.9628 111.859V111.859C94.033 121.753 106.002 141.448 106.002 162.933V247.143V247.143C89.5247 240.942 78.4198 225.408 77.8841 207.81L74.9628 111.859Z" fill="url(#paint4_linear_5_75)"/>
<path d="M77.8751 113.616L124.166 130.647C137.329 135.489 144.074 150.086 139.231 163.249V163.249L92.9402 146.218C79.7772 141.375 73.0323 126.779 77.8751 113.616V113.616Z" fill="url(#paint5_linear_5_75)" fill-opacity="0.6"/>
<path d="M173.121 159V50.25H178.615L230.271 101.793L281.871 50.25H293.992V159H269.75V92.5039L227.326 134.928L185.242 92.5039V159H173.121ZM366.492 110.629V98.6211C366.492 95.2982 365.284 92.4473 362.867 90.0684C360.488 87.6895 357.656 86.5 354.371 86.5H342.25C335.113 86.5 331.111 90.5404 330.242 98.6211H318.121C319.971 82.4596 328.014 74.3789 342.25 74.3789H366.492C373.1 74.3789 378.764 76.7767 383.484 81.5723C388.242 86.3301 390.621 92.013 390.621 98.6211V159H366.492V146.879C365.548 154.96 361.508 159 354.371 159H342.25C335.642 159 329.959 156.64 325.201 151.92C320.481 147.162 318.121 141.479 318.121 134.871V134.758C318.121 128.15 320.5 122.486 325.258 117.766C330.016 113.008 335.68 110.629 342.25 110.629H366.492ZM366.492 122.75H354.371C351.048 122.75 348.197 123.939 345.818 126.318C343.439 128.66 342.25 131.473 342.25 134.758V134.871C342.25 138.118 343.421 140.932 345.762 143.311C348.141 145.689 351.01 146.879 354.371 146.879C357.732 146.879 360.583 145.689 362.924 143.311C365.303 140.932 366.492 138.118 366.492 134.871V122.75ZM475.072 74.3789H463.064C462.007 66.2982 458.193 62.2578 451.623 62.2578C447.394 62.2578 444.203 63.2773 442.051 65.3164C439.898 67.3555 438.822 70.3952 438.822 74.4355C438.822 77.4564 440.012 80.2884 442.391 82.9316L467.992 111.705C472.712 116.992 475.072 122.674 475.072 128.754V134.871C475.072 141.404 472.712 147.068 467.992 151.863C463.272 156.621 457.589 159 450.943 159H438.822C430.817 159 424.794 156.98 420.754 152.939C416.714 148.899 414.693 142.876 414.693 134.871H426.814C426.739 135.702 426.701 136.363 426.701 136.854C426.701 140.139 427.966 142.631 430.496 144.33C433.026 146.029 435.801 146.879 438.822 146.879C443.127 146.879 446.223 145.84 448.111 143.764C449.999 141.687 450.943 138.666 450.943 134.701C450.943 131.643 449.754 128.811 447.375 126.205L421.773 97.5449C417.053 92.2962 414.693 86.6133 414.693 80.4961V74.3789C414.693 67.8086 417.053 62.1445 421.773 57.3867C426.493 52.6289 432.176 50.25 438.822 50.25H450.943C466.048 50.25 474.09 58.293 475.072 74.3789Z" fill="url(#paint6_linear_5_75)"/>
<path d="M136.152 198H129.96V196.752L131.976 196.296V182.592L129.96 182.112V180.864H136.152V182.112L134.136 182.592V196.296L136.152 196.752V198ZM145.365 184.896C146.901 184.896 148.061 185.272 148.845 186.024C149.629 186.76 150.021 187.96 150.021 189.624V198H147.933V189.768C147.933 188.728 147.701 187.952 147.237 187.44C146.773 186.928 146.045 186.672 145.053 186.672C143.629 186.672 142.645 187.072 142.101 187.872C141.557 188.672 141.285 189.824 141.285 191.328V198H139.173V185.136H140.877L141.189 186.888H141.309C141.597 186.44 141.949 186.072 142.365 185.784C142.797 185.48 143.269 185.256 143.781 185.112C144.293 184.968 144.821 184.896 145.365 184.896ZM159.169 198.24C158.033 198.24 157.017 198.008 156.121 197.544C155.241 197.08 154.545 196.36 154.033 195.384C153.537 194.408 153.289 193.16 153.289 191.64C153.289 190.056 153.553 188.768 154.081 187.776C154.609 186.784 155.321 186.056 156.217 185.592C157.129 185.128 158.161 184.896 159.313 184.896C159.969 184.896 160.601 184.968 161.209 185.112C161.817 185.24 162.313 185.4 162.697 185.592L162.049 187.344C161.665 187.2 161.217 187.064 160.705 186.936C160.193 186.808 159.713 186.744 159.265 186.744C158.401 186.744 157.689 186.928 157.129 187.296C156.569 187.664 156.153 188.208 155.881 188.928C155.609 189.648 155.473 190.544 155.473 191.616C155.473 192.64 155.609 193.512 155.881 194.232C156.153 194.952 156.561 195.496 157.105 195.864C157.649 196.232 158.329 196.416 159.145 196.416C159.849 196.416 160.465 196.344 160.993 196.2C161.537 196.056 162.033 195.88 162.481 195.672V197.544C162.049 197.768 161.569 197.936 161.041 198.048C160.529 198.176 159.905 198.24 159.169 198.24ZM171.54 184.896C171.78 184.896 172.036 184.912 172.308 184.944C172.596 184.96 172.844 184.992 173.052 185.04L172.788 186.984C172.58 186.936 172.348 186.896 172.092 186.864C171.852 186.832 171.62 186.816 171.396 186.816C170.9 186.816 170.428 186.92 169.98 187.128C169.532 187.336 169.132 187.632 168.78 188.016C168.428 188.384 168.148 188.832 167.94 189.36C167.748 189.888 167.652 190.48 167.652 191.136V198H165.54V185.136H167.268L167.508 187.488H167.604C167.876 187.008 168.204 186.576 168.588 186.192C168.972 185.792 169.412 185.48 169.908 185.256C170.404 185.016 170.948 184.896 171.54 184.896ZM179.953 184.896C181.057 184.896 182.001 185.136 182.785 185.616C183.585 186.096 184.193 186.776 184.609 187.656C185.041 188.52 185.257 189.536 185.257 190.704V191.976H176.449C176.481 193.432 176.849 194.544 177.553 195.312C178.273 196.064 179.273 196.44 180.553 196.44C181.369 196.44 182.089 196.368 182.713 196.224C183.353 196.064 184.009 195.84 184.681 195.552V197.4C184.025 197.688 183.377 197.896 182.737 198.024C182.097 198.168 181.337 198.24 180.457 198.24C179.241 198.24 178.161 197.992 177.217 197.496C176.289 197 175.561 196.264 175.033 195.288C174.521 194.296 174.265 193.088 174.265 191.664C174.265 190.256 174.497 189.048 174.961 188.04C175.441 187.032 176.105 186.256 176.953 185.712C177.817 185.168 178.817 184.896 179.953 184.896ZM179.929 186.624C178.921 186.624 178.121 186.952 177.529 187.608C176.953 188.248 176.609 189.144 176.497 190.296H183.049C183.049 189.56 182.937 188.92 182.713 188.376C182.489 187.832 182.145 187.408 181.681 187.104C181.233 186.784 180.649 186.624 179.929 186.624ZM193.092 198.24C191.492 198.24 190.212 197.688 189.252 196.584C188.292 195.464 187.812 193.8 187.812 191.592C187.812 189.384 188.292 187.72 189.252 186.6C190.228 185.464 191.516 184.896 193.116 184.896C193.788 184.896 194.372 184.984 194.868 185.16C195.364 185.32 195.796 185.544 196.164 185.832C196.532 186.12 196.844 186.44 197.1 186.792H197.244C197.228 186.584 197.196 186.28 197.148 185.88C197.116 185.464 197.1 185.136 197.1 184.896V179.76H199.212V198H197.508L197.196 196.272H197.1C196.844 196.64 196.532 196.976 196.164 197.28C195.796 197.568 195.356 197.8 194.844 197.976C194.348 198.152 193.764 198.24 193.092 198.24ZM193.428 196.488C194.788 196.488 195.74 196.12 196.284 195.384C196.844 194.632 197.124 193.504 197.124 192V191.616C197.124 190.016 196.86 188.792 196.332 187.944C195.804 187.08 194.828 186.648 193.404 186.648C192.268 186.648 191.412 187.104 190.836 188.016C190.276 188.912 189.996 190.12 189.996 191.64C189.996 193.176 190.276 194.368 190.836 195.216C191.412 196.064 192.276 196.488 193.428 196.488ZM205.41 185.136V198H203.298V185.136H205.41ZM204.378 180.312C204.698 180.312 204.978 180.424 205.218 180.648C205.474 180.856 205.602 181.192 205.602 181.656C205.602 182.104 205.474 182.44 205.218 182.664C204.978 182.888 204.698 183 204.378 183C204.026 183 203.73 182.888 203.49 182.664C203.25 182.44 203.13 182.104 203.13 181.656C203.13 181.192 203.25 180.856 203.49 180.648C203.73 180.424 204.026 180.312 204.378 180.312ZM211.597 184.2C211.597 184.744 211.581 185.256 211.549 185.736C211.533 186.2 211.509 186.568 211.477 186.84H211.597C211.965 186.296 212.469 185.84 213.109 185.472C213.749 185.104 214.573 184.92 215.581 184.92C217.181 184.92 218.461 185.48 219.421 186.6C220.397 187.704 220.885 189.36 220.885 191.568C220.885 193.04 220.661 194.272 220.213 195.264C219.781 196.256 219.165 197 218.365 197.496C217.565 197.992 216.637 198.24 215.581 198.24C214.573 198.24 213.749 198.056 213.109 197.688C212.469 197.32 211.965 196.88 211.597 196.368H211.429L210.997 198H209.485V179.76H211.597V184.2ZM215.221 186.672C214.309 186.672 213.589 186.848 213.061 187.2C212.533 187.536 212.157 188.064 211.933 188.784C211.709 189.488 211.597 190.392 211.597 191.496V191.592C211.597 193.176 211.853 194.392 212.365 195.24C212.893 196.072 213.861 196.488 215.269 196.488C216.421 196.488 217.277 196.064 217.837 195.216C218.413 194.368 218.701 193.144 218.701 191.544C218.701 189.928 218.413 188.712 217.837 187.896C217.277 187.08 216.405 186.672 215.221 186.672ZM226.363 198H224.251V179.76H226.363V198ZM235.406 184.896C236.51 184.896 237.454 185.136 238.238 185.616C239.038 186.096 239.646 186.776 240.062 187.656C240.494 188.52 240.71 189.536 240.71 190.704V191.976H231.902C231.934 193.432 232.302 194.544 233.006 195.312C233.726 196.064 234.726 196.44 236.006 196.44C236.822 196.44 237.542 196.368 238.166 196.224C238.806 196.064 239.462 195.84 240.134 195.552V197.4C239.478 197.688 238.83 197.896 238.19 198.024C237.55 198.168 236.79 198.24 235.91 198.24C234.694 198.24 233.614 197.992 232.67 197.496C231.742 197 231.014 196.264 230.486 195.288C229.974 194.296 229.718 193.088 229.718 191.664C229.718 190.256 229.95 189.048 230.414 188.04C230.894 187.032 231.558 186.256 232.406 185.712C233.27 185.168 234.27 184.896 235.406 184.896ZM235.382 186.624C234.374 186.624 233.574 186.952 232.982 187.608C232.406 188.248 232.062 189.144 231.95 190.296H238.502C238.502 189.56 238.39 188.92 238.166 188.376C237.942 187.832 237.598 187.408 237.134 187.104C236.686 186.784 236.102 186.624 235.382 186.624ZM258.302 198L252.662 182.976H252.566C252.598 183.296 252.622 183.704 252.638 184.2C252.67 184.696 252.694 185.24 252.71 185.832C252.726 186.408 252.734 187 252.734 187.608V198H250.742V180.864H253.934L259.214 194.904H259.31L264.686 180.864H267.854V198H265.718V187.464C265.718 186.904 265.726 186.352 265.742 185.808C265.758 185.248 265.782 184.728 265.814 184.248C265.846 183.752 265.87 183.336 265.886 183H265.79L260.078 198H258.302ZM277.1 184.92C278.668 184.92 279.828 185.264 280.58 185.952C281.332 186.64 281.708 187.736 281.708 189.24V198H280.172L279.764 196.176H279.668C279.3 196.64 278.916 197.032 278.516 197.352C278.132 197.656 277.684 197.88 277.172 198.024C276.676 198.168 276.068 198.24 275.348 198.24C274.58 198.24 273.884 198.104 273.26 197.832C272.652 197.56 272.172 197.144 271.82 196.584C271.468 196.008 271.292 195.288 271.292 194.424C271.292 193.144 271.796 192.16 272.804 191.472C273.812 190.768 275.364 190.384 277.46 190.32L279.644 190.248V189.48C279.644 188.408 279.412 187.664 278.948 187.248C278.484 186.832 277.828 186.624 276.98 186.624C276.308 186.624 275.668 186.728 275.06 186.936C274.452 187.128 273.884 187.352 273.355 187.608L272.708 186.024C273.268 185.72 273.932 185.464 274.7 185.256C275.468 185.032 276.268 184.92 277.1 184.92ZM277.724 191.784C276.124 191.848 275.012 192.104 274.388 192.552C273.78 193 273.476 193.632 273.476 194.448C273.476 195.168 273.692 195.696 274.124 196.032C274.572 196.368 275.14 196.536 275.828 196.536C276.916 196.536 277.82 196.24 278.54 195.648C279.26 195.04 279.62 194.112 279.62 192.864V191.712L277.724 191.784ZM291.873 184.896C293.409 184.896 294.569 185.272 295.353 186.024C296.137 186.76 296.529 187.96 296.529 189.624V198H294.441V189.768C294.441 188.728 294.209 187.952 293.745 187.44C293.281 186.928 292.553 186.672 291.561 186.672C290.137 186.672 289.153 187.072 288.609 187.872C288.065 188.672 287.793 189.824 287.793 191.328V198H285.681V185.136H287.385L287.697 186.888H287.817C288.105 186.44 288.457 186.072 288.873 185.784C289.305 185.48 289.777 185.256 290.289 185.112C290.801 184.968 291.329 184.896 291.873 184.896ZM305.389 184.92C306.957 184.92 308.117 185.264 308.869 185.952C309.621 186.64 309.997 187.736 309.997 189.24V198H308.461L308.053 196.176H307.957C307.589 196.64 307.205 197.032 306.805 197.352C306.421 197.656 305.973 197.88 305.461 198.024C304.965 198.168 304.357 198.24 303.637 198.24C302.869 198.24 302.173 198.104 301.549 197.832C300.941 197.56 300.461 197.144 300.109 196.584C299.757 196.008 299.581 195.288 299.581 194.424C299.581 193.144 300.085 192.16 301.093 191.472C302.101 190.768 303.653 190.384 305.749 190.32L307.933 190.248V189.48C307.933 188.408 307.701 187.664 307.237 187.248C306.773 186.832 306.117 186.624 305.269 186.624C304.597 186.624 303.957 186.728 303.349 186.936C302.741 187.128 302.173 187.352 301.645 187.608L300.997 186.024C301.557 185.72 302.221 185.464 302.989 185.256C303.757 185.032 304.557 184.92 305.389 184.92ZM306.013 191.784C304.413 191.848 303.301 192.104 302.677 192.552C302.069 193 301.765 193.632 301.765 194.448C301.765 195.168 301.981 195.696 302.413 196.032C302.861 196.368 303.429 196.536 304.117 196.536C305.205 196.536 306.109 196.24 306.829 195.648C307.549 195.04 307.909 194.112 307.909 192.864V191.712L306.013 191.784ZM318.53 184.896C319.378 184.896 320.138 185.056 320.81 185.376C321.498 185.696 322.082 186.184 322.562 186.84H322.682L322.97 185.136H324.65V198.216C324.65 199.432 324.442 200.448 324.026 201.264C323.61 202.096 322.978 202.72 322.13 203.136C321.282 203.552 320.202 203.76 318.89 203.76C317.962 203.76 317.106 203.688 316.322 203.544C315.554 203.416 314.866 203.216 314.258 202.944V201C314.674 201.208 315.13 201.384 315.626 201.528C316.122 201.688 316.658 201.808 317.234 201.888C317.81 201.968 318.402 202.008 319.01 202.008C320.114 202.008 320.978 201.68 321.602 201.024C322.242 200.384 322.562 199.504 322.562 198.384V197.88C322.562 197.688 322.57 197.416 322.586 197.064C322.602 196.696 322.618 196.44 322.634 196.296H322.538C322.09 196.952 321.53 197.44 320.858 197.76C320.202 198.08 319.434 198.24 318.554 198.24C316.89 198.24 315.586 197.656 314.642 196.488C313.714 195.32 313.25 193.688 313.25 191.592C313.25 190.216 313.458 189.032 313.874 188.04C314.306 187.032 314.914 186.256 315.698 185.712C316.482 185.168 317.426 184.896 318.53 184.896ZM318.818 186.672C318.098 186.672 317.482 186.864 316.97 187.248C316.474 187.632 316.09 188.192 315.818 188.928C315.562 189.664 315.434 190.56 315.434 191.616C315.434 193.2 315.722 194.416 316.298 195.264C316.89 196.096 317.746 196.512 318.866 196.512C319.522 196.512 320.082 196.432 320.546 196.272C321.01 196.096 321.394 195.832 321.698 195.48C322.002 195.112 322.226 194.648 322.37 194.088C322.514 193.528 322.586 192.864 322.586 192.096V191.592C322.586 190.424 322.45 189.48 322.178 188.76C321.922 188.04 321.514 187.512 320.954 187.176C320.394 186.84 319.682 186.672 318.818 186.672ZM333.703 184.896C334.807 184.896 335.751 185.136 336.535 185.616C337.335 186.096 337.943 186.776 338.359 187.656C338.791 188.52 339.007 189.536 339.007 190.704V191.976H330.199C330.231 193.432 330.599 194.544 331.303 195.312C332.023 196.064 333.023 196.44 334.303 196.44C335.119 196.44 335.839 196.368 336.463 196.224C337.103 196.064 337.759 195.84 338.431 195.552V197.4C337.775 197.688 337.127 197.896 336.487 198.024C335.847 198.168 335.087 198.24 334.207 198.24C332.991 198.24 331.911 197.992 330.967 197.496C330.039 197 329.311 196.264 328.783 195.288C328.271 194.296 328.015 193.088 328.015 191.664C328.015 190.256 328.247 189.048 328.711 188.04C329.191 187.032 329.855 186.256 330.703 185.712C331.567 185.168 332.567 184.896 333.703 184.896ZM333.679 186.624C332.671 186.624 331.871 186.952 331.279 187.608C330.703 188.248 330.359 189.144 330.247 190.296H336.799C336.799 189.56 336.687 188.92 336.463 188.376C336.239 187.832 335.895 187.408 335.431 187.104C334.983 186.784 334.399 186.624 333.679 186.624ZM356.394 184.896C357.85 184.896 358.938 185.272 359.658 186.024C360.378 186.76 360.738 187.96 360.738 189.624V198H358.65V189.72C358.65 188.712 358.434 187.952 358.002 187.44C357.586 186.928 356.93 186.672 356.034 186.672C354.786 186.672 353.89 187.032 353.346 187.752C352.818 188.472 352.554 189.52 352.554 190.896V198H350.466V189.72C350.466 189.048 350.37 188.488 350.178 188.04C349.986 187.576 349.698 187.232 349.314 187.008C348.93 186.784 348.434 186.672 347.826 186.672C346.962 186.672 346.282 186.856 345.786 187.224C345.29 187.576 344.93 188.096 344.706 188.784C344.498 189.472 344.394 190.32 344.394 191.328V198H342.282V185.136H343.986L344.298 186.888H344.418C344.69 186.44 345.018 186.072 345.402 185.784C345.802 185.48 346.242 185.256 346.722 185.112C347.202 184.968 347.698 184.896 348.21 184.896C349.202 184.896 350.026 185.072 350.682 185.424C351.354 185.776 351.842 186.32 352.146 187.056H352.266C352.698 186.32 353.282 185.776 354.018 185.424C354.77 185.072 355.562 184.896 356.394 184.896ZM369.68 184.896C370.784 184.896 371.728 185.136 372.512 185.616C373.312 186.096 373.92 186.776 374.336 187.656C374.768 188.52 374.984 189.536 374.984 190.704V191.976H366.176C366.208 193.432 366.576 194.544 367.28 195.312C368 196.064 369 196.44 370.28 196.44C371.096 196.44 371.816 196.368 372.44 196.224C373.08 196.064 373.736 195.84 374.408 195.552V197.4C373.752 197.688 373.104 197.896 372.464 198.024C371.824 198.168 371.064 198.24 370.184 198.24C368.968 198.24 367.888 197.992 366.944 197.496C366.016 197 365.288 196.264 364.76 195.288C364.248 194.296 363.992 193.088 363.992 191.664C363.992 190.256 364.224 189.048 364.688 188.04C365.168 187.032 365.832 186.256 366.68 185.712C367.544 185.168 368.544 184.896 369.68 184.896ZM369.656 186.624C368.648 186.624 367.848 186.952 367.256 187.608C366.68 188.248 366.336 189.144 366.224 190.296H372.776C372.776 189.56 372.664 188.92 372.44 188.376C372.216 187.832 371.872 187.408 371.408 187.104C370.96 186.784 370.376 186.624 369.656 186.624ZM384.451 184.896C385.987 184.896 387.147 185.272 387.931 186.024C388.715 186.76 389.107 187.96 389.107 189.624V198H387.019V189.768C387.019 188.728 386.787 187.952 386.323 187.44C385.859 186.928 385.131 186.672 384.139 186.672C382.715 186.672 381.731 187.072 381.187 187.872C380.643 188.672 380.371 189.824 380.371 191.328V198H378.259V185.136H379.963L380.275 186.888H380.395C380.683 186.44 381.035 186.072 381.451 185.784C381.883 185.48 382.355 185.256 382.867 185.112C383.379 184.968 383.907 184.896 384.451 184.896ZM397.391 196.512C397.711 196.512 398.039 196.488 398.375 196.44C398.711 196.376 398.983 196.312 399.191 196.248V197.856C398.967 197.968 398.647 198.056 398.231 198.12C397.815 198.2 397.415 198.24 397.031 198.24C396.359 198.24 395.735 198.128 395.159 197.904C394.599 197.664 394.143 197.256 393.791 196.68C393.439 196.104 393.263 195.296 393.263 194.256V186.768H391.439V185.76L393.287 184.92L394.127 182.184H395.375V185.136H399.095V186.768H395.375V194.208C395.375 194.992 395.559 195.576 395.927 195.96C396.311 196.328 396.799 196.512 397.391 196.512ZM418.243 193.416C418.243 194.44 417.995 195.312 417.499 196.032C417.003 196.736 416.291 197.28 415.363 197.664C414.451 198.048 413.371 198.24 412.123 198.24C411.483 198.24 410.867 198.208 410.275 198.144C409.699 198.08 409.171 197.992 408.691 197.88C408.211 197.752 407.787 197.6 407.419 197.424V195.36C407.995 195.616 408.707 195.848 409.555 196.056C410.419 196.264 411.307 196.368 412.219 196.368C413.067 196.368 413.779 196.256 414.355 196.032C414.931 195.808 415.363 195.488 415.651 195.072C415.939 194.656 416.083 194.168 416.083 193.608C416.083 193.048 415.963 192.576 415.723 192.192C415.483 191.808 415.067 191.456 414.475 191.136C413.899 190.8 413.091 190.448 412.051 190.08C411.315 189.808 410.667 189.52 410.107 189.216C409.563 188.896 409.107 188.536 408.739 188.136C408.371 187.736 408.091 187.28 407.899 186.768C407.723 186.256 407.635 185.664 407.635 184.992C407.635 184.08 407.867 183.304 408.331 182.664C408.795 182.008 409.435 181.504 410.251 181.152C411.083 180.8 412.035 180.624 413.107 180.624C414.051 180.624 414.915 180.712 415.699 180.888C416.483 181.064 417.195 181.296 417.835 181.584L417.163 183.432C416.571 183.176 415.923 182.96 415.219 182.784C414.531 182.608 413.811 182.52 413.059 182.52C412.339 182.52 411.739 182.624 411.259 182.832C410.779 183.04 410.419 183.336 410.179 183.72C409.939 184.088 409.819 184.52 409.819 185.016C409.819 185.592 409.939 186.072 410.179 186.456C410.419 186.84 410.811 187.184 411.355 187.488C411.899 187.792 412.635 188.12 413.563 188.472C414.571 188.84 415.419 189.24 416.107 189.672C416.811 190.088 417.339 190.592 417.691 191.184C418.059 191.776 418.243 192.52 418.243 193.416ZM419.391 185.136H421.647L424.431 192.456C424.591 192.888 424.735 193.304 424.863 193.704C425.007 194.104 425.135 194.496 425.247 194.88C425.359 195.248 425.447 195.608 425.511 195.96H425.607C425.703 195.56 425.855 195.04 426.063 194.4C426.271 193.744 426.487 193.088 426.711 192.432L429.327 185.136H431.607L426.063 199.776C425.759 200.576 425.399 201.272 424.983 201.864C424.583 202.472 424.087 202.936 423.495 203.256C422.919 203.592 422.215 203.76 421.383 203.76C420.999 203.76 420.663 203.736 420.375 203.688C420.087 203.656 419.839 203.616 419.631 203.568V201.888C419.807 201.92 420.015 201.952 420.255 201.984C420.511 202.016 420.775 202.032 421.047 202.032C421.543 202.032 421.967 201.936 422.319 201.744C422.687 201.568 422.999 201.304 423.255 200.952C423.511 200.616 423.727 200.216 423.903 199.752L424.575 198.048L419.391 185.136ZM442.018 194.448C442.018 195.28 441.81 195.976 441.394 196.536C440.978 197.096 440.386 197.52 439.618 197.808C438.85 198.096 437.938 198.24 436.882 198.24C435.986 198.24 435.21 198.168 434.554 198.024C433.914 197.88 433.346 197.68 432.85 197.424V195.504C433.362 195.76 433.978 196 434.698 196.224C435.434 196.432 436.178 196.536 436.93 196.536C438.002 196.536 438.778 196.368 439.258 196.032C439.738 195.68 439.978 195.216 439.978 194.64C439.978 194.32 439.89 194.032 439.714 193.776C439.538 193.52 439.218 193.264 438.754 193.008C438.306 192.752 437.658 192.464 436.81 192.144C435.978 191.824 435.266 191.504 434.674 191.184C434.082 190.864 433.626 190.48 433.306 190.032C432.986 189.584 432.826 189.008 432.826 188.304C432.826 187.216 433.266 186.376 434.146 185.784C435.042 185.192 436.21 184.896 437.65 184.896C438.434 184.896 439.162 184.976 439.834 185.136C440.522 185.28 441.162 185.488 441.754 185.76L441.034 187.44C440.682 187.28 440.306 187.144 439.906 187.032C439.522 186.904 439.13 186.808 438.73 186.744C438.33 186.664 437.922 186.624 437.506 186.624C436.642 186.624 435.978 186.768 435.514 187.056C435.066 187.328 434.842 187.704 434.842 188.184C434.842 188.536 434.946 188.84 435.154 189.096C435.362 189.336 435.706 189.576 436.186 189.816C436.682 190.04 437.338 190.312 438.154 190.632C438.97 190.936 439.666 191.248 440.242 191.568C440.818 191.888 441.258 192.28 441.562 192.744C441.866 193.192 442.018 193.76 442.018 194.448ZM449.422 196.512C449.742 196.512 450.07 196.488 450.406 196.44C450.742 196.376 451.014 196.312 451.222 196.248V197.856C450.998 197.968 450.678 198.056 450.262 198.12C449.846 198.2 449.446 198.24 449.062 198.24C448.39 198.24 447.766 198.128 447.19 197.904C446.63 197.664 446.174 197.256 445.822 196.68C445.47 196.104 445.294 195.296 445.294 194.256V186.768H443.47V185.76L445.318 184.92L446.158 182.184H447.406V185.136H451.126V186.768H447.406V194.208C447.406 194.992 447.59 195.576 447.958 195.96C448.342 196.328 448.83 196.512 449.422 196.512ZM458.766 184.896C459.87 184.896 460.814 185.136 461.598 185.616C462.398 186.096 463.006 186.776 463.422 187.656C463.854 188.52 464.07 189.536 464.07 190.704V191.976H455.262C455.294 193.432 455.662 194.544 456.366 195.312C457.086 196.064 458.086 196.44 459.366 196.44C460.182 196.44 460.902 196.368 461.526 196.224C462.166 196.064 462.822 195.84 463.494 195.552V197.4C462.838 197.688 462.19 197.896 461.55 198.024C460.91 198.168 460.15 198.24 459.27 198.24C458.054 198.24 456.974 197.992 456.03 197.496C455.102 197 454.374 196.264 453.846 195.288C453.334 194.296 453.078 193.088 453.078 191.664C453.078 190.256 453.31 189.048 453.774 188.04C454.254 187.032 454.918 186.256 455.766 185.712C456.63 185.168 457.63 184.896 458.766 184.896ZM458.742 186.624C457.734 186.624 456.934 186.952 456.342 187.608C455.766 188.248 455.422 189.144 455.31 190.296H461.862C461.862 189.56 461.75 188.92 461.526 188.376C461.302 187.832 460.958 187.408 460.494 187.104C460.046 186.784 459.462 186.624 458.742 186.624ZM481.457 184.896C482.913 184.896 484.001 185.272 484.721 186.024C485.441 186.76 485.801 187.96 485.801 189.624V198H483.713V189.72C483.713 188.712 483.497 187.952 483.065 187.44C482.649 186.928 481.993 186.672 481.097 186.672C479.849 186.672 478.953 187.032 478.409 187.752C477.881 188.472 477.617 189.52 477.617 190.896V198H475.529V189.72C475.529 189.048 475.433 188.488 475.241 188.04C475.049 187.576 474.761 187.232 474.377 187.008C473.993 186.784 473.497 186.672 472.889 186.672C472.025 186.672 471.345 186.856 470.849 187.224C470.353 187.576 469.993 188.096 469.769 188.784C469.561 189.472 469.457 190.32 469.457 191.328V198H467.345V185.136H469.049L469.361 186.888H469.481C469.753 186.44 470.081 186.072 470.465 185.784C470.865 185.48 471.305 185.256 471.785 185.112C472.265 184.968 472.761 184.896 473.273 184.896C474.265 184.896 475.089 185.072 475.745 185.424C476.417 185.776 476.905 186.32 477.209 187.056H477.329C477.761 186.32 478.345 185.776 479.081 185.424C479.833 185.072 480.625 184.896 481.457 184.896Z" fill="url(#paint7_linear_5_75)"/>
<path d="M161.46 117.905H121.585L118.975 114.135L116.8 111.67V110.655H156.675L159.285 114.425L161.46 116.89V117.905Z" fill="#777777"/>
<defs>
<linearGradient id="paint0_linear_5_75" x1="76.6909" y1="-17.2766" x2="82.8402" y2="47.4374" gradientUnits="userSpaceOnUse">
<stop stop-color="#FFA24C"/>
<stop offset="0.492874" stop-color="#FFC122"/>
<stop offset="1" stop-color="#FF3232"/>
</linearGradient>
<linearGradient id="paint1_linear_5_75" x1="14.934" y1="1.85455" x2="16.9838" y2="23.4259" gradientUnits="userSpaceOnUse">
<stop stop-color="#FFA24C"/>
<stop offset="0.492874" stop-color="#FFC122"/>
<stop offset="1" stop-color="#FF3232"/>
</linearGradient>
<linearGradient id="paint2_linear_5_75" x1="47.7302" y1="14.3484" x2="96.6318" y2="121.522" gradientUnits="userSpaceOnUse">
<stop stop-color="#FFBF27"/>
<stop offset="0.305203" stop-color="#FF9128"/>
<stop offset="1" stop-color="#FF4331"/>
</linearGradient>
<linearGradient id="paint3_linear_5_75" x1="98.3574" y1="116.411" x2="18.2716" y2="16.6672" gradientUnits="userSpaceOnUse">
<stop stop-color="#FF2A2A"/>
<stop offset="0.447722" stop-color="#FFB024"/>
<stop offset="1" stop-color="#737373"/>
</linearGradient>
<linearGradient id="paint4_linear_5_75" x1="181.843" y1="-26.9397" x2="239.512" y2="15.5358" gradientUnits="userSpaceOnUse">
<stop stop-color="#FF2A2A"/>
<stop offset="1" stop-color="#383535"/>
</linearGradient>
<linearGradient id="paint5_linear_5_75" x1="127.517" y1="157.72" x2="97.1347" y2="120.171" gradientUnits="userSpaceOnUse">
<stop stop-color="#FF2A2A"/>
<stop offset="1" stop-color="#737373"/>
</linearGradient>
<linearGradient id="paint6_linear_5_75" x1="521.5" y1="-12.5" x2="140" y2="197" gradientUnits="userSpaceOnUse">
<stop/>
<stop offset="1" stop-color="#666666"/>
</linearGradient>
<linearGradient id="paint7_linear_5_75" x1="129" y1="51.5" x2="298.591" y2="231.592" gradientUnits="userSpaceOnUse">
<stop offset="0.114509" stop-color="#FFA929"/>
<stop offset="1" stop-color="#666666"/>
</linearGradient>
</defs>
</svg>
