<svg width="220" height="48" viewBox="0 0 220 48" fill="none" xmlns="http://www.w3.org/2000/svg">
<rect width="220" height="48" rx="16" fill="url(#paint0_linear_4879_23336)"/>
<g clip-path="url(#clip0_4879_23336)">
<path d="M64.5 16.5C68.6423 16.5 72 19.8578 72 24C72 28.1423 68.6423 31.5 64.5 31.5C60.3578 31.5 57 28.1423 57 24H58.5C58.5 27.3135 61.1865 30 64.5 30C67.8135 30 70.5 27.3135 70.5 24C70.5 20.6865 67.8135 18 64.5 18C62.652 18 60.999 18.8355 59.8987 20.1487L61.5 21.75H57V17.25L58.8353 19.0845C60.21 17.502 62.238 16.5 64.5 16.5ZM65.25 20.25V23.6888L67.6823 26.121L66.621 27.1823L63.75 24.3098V20.25H65.25Z" fill="#ECFDF5"/>
</g>
<path d="M85.6104 29L81.9704 19.2H83.4824L86.4504 27.544L89.4464 19.2H90.9304L87.2904 29H85.6104ZM92.2561 29V21.944H93.6561V29H92.2561ZM92.9701 20.614C92.6994 20.614 92.4754 20.53 92.2981 20.362C92.1301 20.194 92.0461 19.9793 92.0461 19.718C92.0461 19.466 92.1301 19.2607 92.2981 19.102C92.4754 18.934 92.6994 18.85 92.9701 18.85C93.2314 18.85 93.4507 18.934 93.6281 19.102C93.8054 19.2607 93.8941 19.466 93.8941 19.718C93.8941 19.9793 93.8054 20.194 93.6281 20.362C93.4507 20.53 93.2314 20.614 92.9701 20.614ZM98.8501 29.168C98.1781 29.168 97.5807 29.014 97.0581 28.706C96.5354 28.398 96.1247 27.9687 95.8261 27.418C95.5367 26.8673 95.3921 26.228 95.3921 25.5C95.3921 24.7533 95.5367 24.1047 95.8261 23.554C96.1247 22.994 96.5354 22.56 97.0581 22.252C97.5807 21.9347 98.1874 21.776 98.8781 21.776C99.5687 21.776 100.161 21.93 100.656 22.238C101.151 22.546 101.533 22.9567 101.804 23.47C102.075 23.974 102.21 24.534 102.21 25.15C102.21 25.2433 102.205 25.346 102.196 25.458C102.196 25.5607 102.191 25.6773 102.182 25.808H96.4141V24.814H100.81C100.782 24.226 100.586 23.7687 100.222 23.442C99.8581 23.106 99.4054 22.938 98.8641 22.938C98.4814 22.938 98.1314 23.0267 97.8141 23.204C97.4967 23.372 97.2401 23.624 97.0441 23.96C96.8574 24.2867 96.7641 24.702 96.7641 25.206V25.598C96.7641 26.1207 96.8574 26.564 97.0441 26.928C97.2401 27.2827 97.4967 27.5533 97.8141 27.74C98.1314 27.9173 98.4767 28.006 98.8501 28.006C99.2981 28.006 99.6667 27.908 99.9561 27.712C100.245 27.516 100.46 27.25 100.6 26.914H102C101.879 27.3433 101.673 27.7307 101.384 28.076C101.095 28.412 100.735 28.678 100.306 28.874C99.8861 29.07 99.4007 29.168 98.8501 29.168ZM104.92 29L102.848 21.944H104.234L105.774 27.824L105.508 27.81L107.216 21.944H108.784L110.492 27.81L110.226 27.824L111.752 21.944H113.166L111.094 29H109.652L107.86 22.882H108.14L106.348 29H104.92ZM124.312 29V19.2H125.712V29H124.312ZM118.082 29V19.2H119.482V29H118.082ZM119.244 24.576V23.428H124.62V24.576H119.244ZM127.789 29V21.944H129.189V29H127.789ZM128.503 20.614C128.233 20.614 128.009 20.53 127.831 20.362C127.663 20.194 127.579 19.9793 127.579 19.718C127.579 19.466 127.663 19.2607 127.831 19.102C128.009 18.934 128.233 18.85 128.503 18.85C128.765 18.85 128.984 18.934 129.161 19.102C129.339 19.2607 129.427 19.466 129.427 19.718C129.427 19.9793 129.339 20.194 129.161 20.362C128.984 20.53 128.765 20.614 128.503 20.614ZM133.921 29.168C133.324 29.168 132.801 29.07 132.353 28.874C131.905 28.678 131.551 28.4027 131.289 28.048C131.028 27.6933 130.869 27.278 130.813 26.802H132.241C132.288 27.026 132.377 27.2313 132.507 27.418C132.647 27.6047 132.834 27.754 133.067 27.866C133.31 27.978 133.595 28.034 133.921 28.034C134.229 28.034 134.481 27.992 134.677 27.908C134.883 27.8147 135.032 27.6933 135.125 27.544C135.219 27.3853 135.265 27.2173 135.265 27.04C135.265 26.7787 135.2 26.5827 135.069 26.452C134.948 26.312 134.761 26.2047 134.509 26.13C134.267 26.046 133.973 25.9713 133.627 25.906C133.301 25.85 132.983 25.7753 132.675 25.682C132.377 25.5793 132.106 25.4533 131.863 25.304C131.63 25.1547 131.443 24.968 131.303 24.744C131.163 24.5107 131.093 24.226 131.093 23.89C131.093 23.4887 131.201 23.1293 131.415 22.812C131.63 22.4853 131.933 22.2333 132.325 22.056C132.727 21.8693 133.198 21.776 133.739 21.776C134.523 21.776 135.153 21.9627 135.629 22.336C136.105 22.7093 136.385 23.2367 136.469 23.918H135.111C135.074 23.6007 134.934 23.358 134.691 23.19C134.449 23.0127 134.127 22.924 133.725 22.924C133.324 22.924 133.016 23.0033 132.801 23.162C132.587 23.3207 132.479 23.5307 132.479 23.792C132.479 23.96 132.54 24.1093 132.661 24.24C132.783 24.3707 132.96 24.4827 133.193 24.576C133.436 24.66 133.73 24.7393 134.075 24.814C134.57 24.9073 135.013 25.024 135.405 25.164C135.797 25.304 136.11 25.5093 136.343 25.78C136.577 26.0507 136.693 26.438 136.693 26.942C136.703 27.3807 136.591 27.768 136.357 28.104C136.133 28.44 135.811 28.7013 135.391 28.888C134.981 29.0747 134.491 29.168 133.921 29.168ZM140.967 29C140.519 29 140.131 28.93 139.805 28.79C139.478 28.65 139.226 28.4167 139.049 28.09C138.871 27.7633 138.783 27.32 138.783 26.76V23.134H137.565V21.944H138.783L138.951 20.18H140.183V21.944H142.185V23.134H140.183V26.774C140.183 27.1753 140.267 27.4507 140.435 27.6C140.603 27.74 140.892 27.81 141.303 27.81H142.115V29H140.967ZM146.757 29.168C146.094 29.168 145.497 29.014 144.965 28.706C144.442 28.398 144.027 27.9687 143.719 27.418C143.42 26.858 143.271 26.214 143.271 25.486C143.271 24.7393 143.425 24.0907 143.733 23.54C144.041 22.98 144.461 22.546 144.993 22.238C145.525 21.93 146.122 21.776 146.785 21.776C147.457 21.776 148.054 21.93 148.577 22.238C149.1 22.546 149.51 22.9753 149.809 23.526C150.117 24.0767 150.271 24.7253 150.271 25.472C150.271 26.2187 150.117 26.8673 149.809 27.418C149.51 27.9687 149.095 28.398 148.563 28.706C148.031 29.014 147.429 29.168 146.757 29.168ZM146.757 27.964C147.14 27.964 147.485 27.8707 147.793 27.684C148.11 27.4973 148.362 27.222 148.549 26.858C148.745 26.4847 148.843 26.0227 148.843 25.472C148.843 24.9213 148.75 24.464 148.563 24.1C148.376 23.7267 148.124 23.4467 147.807 23.26C147.499 23.0733 147.158 22.98 146.785 22.98C146.412 22.98 146.066 23.0733 145.749 23.26C145.432 23.4467 145.175 23.7267 144.979 24.1C144.792 24.464 144.699 24.9213 144.699 25.472C144.699 26.0227 144.792 26.4847 144.979 26.858C145.175 27.222 145.427 27.4973 145.735 27.684C146.052 27.8707 146.393 27.964 146.757 27.964ZM151.918 29V21.944H153.178L153.304 23.274C153.462 22.9567 153.668 22.6907 153.92 22.476C154.172 22.252 154.466 22.0793 154.802 21.958C155.147 21.8367 155.539 21.776 155.978 21.776V23.26H155.474C155.184 23.26 154.909 23.2973 154.648 23.372C154.386 23.4373 154.153 23.554 153.948 23.722C153.752 23.89 153.598 24.1187 153.486 24.408C153.374 24.6973 153.318 25.0567 153.318 25.486V29H151.918ZM158.076 32.08L159.798 28.216H159.392L156.606 21.944H158.118L160.33 27.068L162.556 21.944H164.026L159.546 32.08H158.076Z" fill="#ECFDF5"/>
<defs>
<linearGradient id="paint0_linear_4879_23336" x1="0" y1="24" x2="220" y2="24" gradientUnits="userSpaceOnUse">
<stop stop-color="#0B9C7B"/>
<stop offset="1" stop-color="#0B9C7B" stop-opacity="0.8"/>
</linearGradient>
<clipPath id="clip0_4879_23336">
<rect width="18" height="18" fill="white" transform="translate(55.5 15)"/>
</clipPath>
</defs>
</svg>
