<svg width="80" height="28" viewBox="0 0 80 28" fill="none" xmlns="http://www.w3.org/2000/svg">
<rect width="80" height="28" rx="6" fill="#0B9C7B"/>
<path d="M9.852 18V9.6H15.372V10.908H11.472V13.104H15.012V14.364H11.472V16.692H15.372V18H9.852ZM16.2953 18L18.4553 14.916L16.2953 11.844H18.0473L19.4633 13.92L20.8793 11.844H22.6313L20.4713 14.916L22.6313 18H20.8793L19.4633 15.888L18.0473 18H16.2953ZM23.6907 20.64V11.844H25.1307L25.3107 12.684C25.4387 12.5 25.5907 12.336 25.7667 12.192C25.9427 12.04 26.1507 11.92 26.3907 11.832C26.6387 11.744 26.9227 11.7 27.2427 11.7C27.8187 11.7 28.3187 11.844 28.7427 12.132C29.1747 12.412 29.5107 12.796 29.7507 13.284C29.9987 13.764 30.1227 14.316 30.1227 14.94C30.1227 15.556 29.9947 16.108 29.7387 16.596C29.4907 17.076 29.1507 17.456 28.7187 17.736C28.2947 18.008 27.8107 18.144 27.2667 18.144C26.8187 18.144 26.4307 18.064 26.1027 17.904C25.7827 17.736 25.5187 17.508 25.3107 17.22V20.64H23.6907ZM26.8707 16.728C27.1827 16.728 27.4587 16.656 27.6987 16.512C27.9387 16.36 28.1267 16.148 28.2627 15.876C28.3987 15.604 28.4667 15.288 28.4667 14.928C28.4667 14.568 28.3987 14.252 28.2627 13.98C28.1267 13.708 27.9387 13.496 27.6987 13.344C27.4587 13.192 27.1827 13.116 26.8707 13.116C26.5587 13.116 26.2787 13.192 26.0307 13.344C25.7907 13.496 25.6027 13.708 25.4667 13.98C25.3387 14.252 25.2747 14.568 25.2747 14.928C25.2747 15.288 25.3387 15.604 25.4667 15.876C25.6027 16.148 25.7907 16.36 26.0307 16.512C26.2787 16.656 26.5587 16.728 26.8707 16.728ZM34.3983 18.144C33.8143 18.144 33.2903 18.008 32.8263 17.736C32.3703 17.464 32.0103 17.084 31.7463 16.596C31.4823 16.108 31.3503 15.552 31.3503 14.928C31.3503 14.288 31.4823 13.728 31.7463 13.248C32.0103 12.76 32.3743 12.38 32.8383 12.108C33.3023 11.836 33.8263 11.7 34.4103 11.7C35.0023 11.7 35.5263 11.836 35.9823 12.108C36.4463 12.38 36.8103 12.76 37.0743 13.248C37.3383 13.728 37.4703 14.288 37.4703 14.928C37.4703 15.56 37.3383 16.12 37.0743 16.608C36.8103 17.088 36.4463 17.464 35.9823 17.736C35.5263 18.008 34.9983 18.144 34.3983 18.144ZM34.3983 16.74C34.6783 16.74 34.9223 16.672 35.1303 16.536C35.3463 16.4 35.5143 16.2 35.6343 15.936C35.7543 15.664 35.8143 15.328 35.8143 14.928C35.8143 14.52 35.7543 14.184 35.6343 13.92C35.5143 13.648 35.3503 13.444 35.1423 13.308C34.9343 13.172 34.6903 13.104 34.4103 13.104C34.1463 13.104 33.9063 13.172 33.6903 13.308C33.4823 13.444 33.3143 13.648 33.1863 13.92C33.0663 14.184 33.0063 14.52 33.0063 14.928C33.0063 15.328 33.0663 15.664 33.1863 15.936C33.3063 16.2 33.4703 16.4 33.6783 16.536C33.8943 16.672 34.1343 16.74 34.3983 16.74ZM38.8899 18V11.844H40.3299L40.4859 12.96C40.6379 12.688 40.8259 12.46 41.0499 12.276C41.2739 12.092 41.5339 11.952 41.8299 11.856C42.1339 11.752 42.4659 11.7 42.8259 11.7V13.416H42.1419C41.9099 13.416 41.6939 13.444 41.4939 13.5C41.2939 13.548 41.1219 13.636 40.9779 13.764C40.8339 13.884 40.7179 14.052 40.6299 14.268C40.5499 14.476 40.5099 14.736 40.5099 15.048V18H38.8899ZM46.6656 18C46.2416 18 45.8696 17.936 45.5496 17.808C45.2376 17.672 44.9936 17.452 44.8176 17.148C44.6416 16.836 44.5536 16.412 44.5536 15.876V13.2H43.4976V11.844H44.5536L44.7336 10.152H46.1736V11.844H47.7816V13.2H46.1736V15.9C46.1736 16.172 46.2336 16.36 46.3536 16.464C46.4736 16.568 46.6776 16.62 46.9656 16.62H47.7816V18H46.6656Z" fill="white"/>
<g clip-path="url(#clip0_4888_20919)">
<path d="M61.6667 8V9.33333H58.3333V18.6667H67.6667V15.3333H69V19.3333C69 19.5101 68.9298 19.6797 68.8047 19.8047C68.6797 19.9298 68.5101 20 68.3333 20H57.6667C57.4899 20 57.3203 19.9298 57.1953 19.8047C57.0702 19.6797 57 19.5101 57 19.3333V8.66667C57 8.48986 57.0702 8.32029 57.1953 8.19526C57.3203 8.07024 57.4899 8 57.6667 8H61.6667ZM66.724 9.33333H63.6667V8H69V13.3333H67.6667V10.276L63 14.9427L62.0573 14L66.724 9.33333Z" fill="white"/>
</g>
<defs>
<clipPath id="clip0_4888_20919">
<rect width="16" height="16" fill="white" transform="translate(55 6)"/>
</clipPath>
</defs>
</svg>
