<svg width="91" height="36" viewBox="0 0 91 36" fill="none" xmlns="http://www.w3.org/2000/svg">
<rect x="0.5" y="0.5" width="90" height="35" rx="5.5" stroke="#3E3E47"/>
<path d="M13.148 23V13.284H14.464V23H13.148ZM14.044 23V21.796H19.616V23H14.044ZM14.044 18.604V17.456H19.154V18.604H14.044ZM14.044 14.488V13.284H19.546V14.488H14.044ZM25.5498 23L23.4778 20.088L23.2398 19.864L20.6218 16.35H22.1478L24.0378 18.94L24.2758 19.136L27.0758 23H25.5498ZM20.4958 23L23.2398 19.304L23.9538 20.228L21.9798 23H20.4958ZM24.3738 19.85L23.6458 18.954L25.4798 16.35H26.9498L24.3738 19.85ZM31.7365 23.14C31.2325 23.14 30.7752 23.0373 30.3645 22.832C29.9632 22.6173 29.6412 22.3233 29.3985 21.95C29.1558 21.5767 29.0205 21.152 28.9925 20.676V18.674C29.0205 18.1887 29.1558 17.764 29.3985 17.4C29.6505 17.0267 29.9772 16.7373 30.3785 16.532C30.7892 16.3173 31.2418 16.21 31.7365 16.21C32.3432 16.21 32.8892 16.364 33.3745 16.672C33.8692 16.98 34.2565 17.3953 34.5365 17.918C34.8165 18.4407 34.9565 19.0287 34.9565 19.682C34.9565 20.3353 34.8165 20.9233 34.5365 21.446C34.2565 21.9687 33.8692 22.384 33.3745 22.692C32.8892 22.9907 32.3432 23.14 31.7365 23.14ZM28.2365 25.786V16.35H29.4965V18.1L29.2585 19.71L29.4965 21.334V25.786H28.2365ZM31.5265 21.95C31.9465 21.95 32.3152 21.852 32.6325 21.656C32.9498 21.46 33.2018 21.194 33.3885 20.858C33.5752 20.5127 33.6685 20.116 33.6685 19.668C33.6685 19.2293 33.5752 18.8373 33.3885 18.492C33.2018 18.1467 32.9498 17.8807 32.6325 17.694C32.3152 17.498 31.9512 17.4 31.5405 17.4C31.1205 17.4 30.7518 17.498 30.4345 17.694C30.1172 17.8807 29.8698 18.1467 29.6925 18.492C29.5152 18.8373 29.4265 19.234 29.4265 19.682C29.4265 20.1207 29.5105 20.5127 29.6785 20.858C29.8558 21.194 30.1032 21.46 30.4205 21.656C30.7472 21.852 31.1158 21.95 31.5265 21.95ZM39.4229 23.14C38.7696 23.14 38.1816 22.986 37.6589 22.678C37.1363 22.37 36.7209 21.9547 36.4129 21.432C36.1049 20.9 35.9509 20.3073 35.9509 19.654C35.9509 19.01 36.1049 18.4313 36.4129 17.918C36.7209 17.3953 37.1363 16.98 37.6589 16.672C38.1816 16.364 38.7696 16.21 39.4229 16.21C40.0669 16.21 40.6503 16.364 41.1729 16.672C41.7049 16.9707 42.1249 17.3813 42.4329 17.904C42.7409 18.4267 42.8949 19.01 42.8949 19.654C42.8949 20.3073 42.7409 20.9 42.4329 21.432C42.1249 21.9547 41.7049 22.37 41.1729 22.678C40.6503 22.986 40.0669 23.14 39.4229 23.14ZM39.4229 21.922C39.8429 21.922 40.2163 21.824 40.5429 21.628C40.8696 21.432 41.1263 21.166 41.3129 20.83C41.4996 20.4847 41.5929 20.0927 41.5929 19.654C41.5929 19.2247 41.4949 18.842 41.2989 18.506C41.1123 18.17 40.8556 17.9087 40.5289 17.722C40.2116 17.526 39.8429 17.428 39.4229 17.428C39.0029 17.428 38.6296 17.526 38.3029 17.722C37.9763 17.9087 37.7196 18.17 37.5329 18.506C37.3463 18.842 37.2529 19.2247 37.2529 19.654C37.2529 20.0927 37.3463 20.4847 37.5329 20.83C37.7196 21.166 37.9763 21.432 38.3029 21.628C38.6296 21.824 39.0029 21.922 39.4229 21.922ZM44.3146 23V16.35H45.5746V23H44.3146ZM45.5746 19.206L45.0986 18.996C45.0986 18.1467 45.2946 17.47 45.6866 16.966C46.0786 16.462 46.6433 16.21 47.3806 16.21C47.7166 16.21 48.02 16.2707 48.2906 16.392C48.5613 16.504 48.8133 16.6953 49.0466 16.966L48.2206 17.82C48.0806 17.6707 47.9266 17.5633 47.7586 17.498C47.5906 17.4327 47.3946 17.4 47.1706 17.4C46.704 17.4 46.3213 17.5493 46.0226 17.848C45.724 18.1467 45.5746 18.5993 45.5746 19.206ZM50.9284 23V13.564H52.1884V23H50.9284ZM49.2904 17.498V16.35H53.8264V17.498H49.2904Z" fill="#F6F6F6"/>
<path d="M66 9.66667C65.558 9.66667 65.1341 9.84226 64.8215 10.1548C64.5089 10.4674 64.3333 10.8913 64.3333 11.3333V24.6667C64.3333 25.1087 64.5089 25.5326 64.8215 25.8452C65.1341 26.1577 65.558 26.3333 66 26.3333H76C76.442 26.3333 76.866 26.1577 77.1785 25.8452C77.4911 25.5326 77.6667 25.1087 77.6667 24.6667V14.6667L72.6667 9.66667M71.8333 10.9167L76.4167 15.5H71.8333M68.4417 18.1833H74.3333V24.075L72.5667 22.3083L70.2083 24.6667L67.85 22.3083L70.2083 19.9583" fill="#F8F8F8"/>
</svg>
